<?xml version="1.0" standalone="no"?>
<!DOCTYPE svg PUBLIC "-//W3C//DTD SVG 1.1//EN" "http://www.w3.org/Graphics/SVG/1.1/DTD/svg11.dtd" >
<svg xmlns="http://www.w3.org/2000/svg" xmlns:xlink="http://www.w3.org/1999/xlink" version="1.1">
<metadata>
Created by FontForge 20161116 at Wed Sep 21 18:56:04 2016
 By Jimmy Wärting
</metadata>
<defs>
<font id="HelloStockholm-Alt" horiz-adv-x="260" >
  <font-face 
    font-family="Hello Stockholm Alt"
    font-weight="400"
    font-stretch="normal"
    units-per-em="1000"
    panose-1="0 0 5 0 0 0 0 0 0 0"
    ascent="950"
    descent="-50"
    x-height="535"
    cap-height="899.5"
    bbox="-574 -50 745 1029"
    underline-thickness="50"
    underline-position="-100"
    unicode-range="U+0020-F6C0"
  />
<missing-glyph horiz-adv-x="500" 
d="M410 -50h-317v1000h317v-1000zM168 883v-33h65v-37h-66v-33h166v33h-66v37h66v33h-165zM167 754v-104h166v34h-66v70h-100zM233 684h-33v36h33v-36zM167 623v-33h66v-37h-66v-33h100v70h66v33h-166zM300 563v-66h-133v-34h166v100h-33zM233 441v-56h34v23h33v-47h-100v80
h-33v-113h166v113h-100zM167 268v-113h166v113h-166zM300 188h-100v47h100v-47zM167 132v-33h70l-70 -47v-33h166v33h-102l70 47h32v33h-166z" />
    <glyph glyph-name=".notdef" horiz-adv-x="500" 
d="M410 -50h-317v1000h317v-1000zM168 883v-33h65v-37h-66v-33h166v33h-66v37h66v33h-165zM167 754v-104h166v34h-66v70h-100zM233 684h-33v36h33v-36zM167 623v-33h66v-37h-66v-33h100v70h66v33h-166zM300 563v-66h-133v-34h166v100h-33zM233 441v-56h34v23h33v-47h-100v80
h-33v-113h166v113h-100zM167 268v-113h166v113h-166zM300 188h-100v47h100v-47zM167 132v-33h70l-70 -47v-33h166v33h-102l70 47h32v33h-166z" />
    <glyph glyph-name="space" unicode=" " horiz-adv-x="150" 
 />
    <glyph glyph-name="A" unicode="A" horiz-adv-x="235" 
d="M326 873q0 -20 -9 -45q-37 -114 -83 -242l-6 -15q-7 -14 -10 -23l-6 -16q22 -6 49 -26q11 -8 8 -16q-3 -6 -10 -6q-5 0 -9.5 3.5t-7.5 4.5q-22 15 -39 20l-12 -28l-17 -40l-19 -36q-1 -2 -3 -4.5t-3 -6.5l-59 -121q-7 -14 -34 -76q-4 -9 -10 -27q-3 -7 -10 -8
q-12 -2 -18 -2q-5 0 -8 1q-4 2 -8.5 1.5t-6.5 -0.5q-11 3 -10 12q2 22 7 38l18 53l52 131q13 35 32 80q3 8 6 15t5 13q1 0 1 1t-1 1q0 1 -1 1t-1 -1l-27 -13q-70 -40 -127 -89l-21 -17q-10 -9 -23 -7h-8q-7 1 -9 3.5t0 9.5q1 12 9 21l30 37l65 79q18 21 71 90q58 74 53 68
l43 53q-2 -2 32 38q20 24 29 36l13 17q51 64 47 59q8 8 11 9t14 1q8 -1 12 -6q12 -12 9 -25zM123 545l21 49l43 106l10 26q-3 0 -4.5 -3t-2.5 -4q-20 -24 -29 -36l-39 -46l-78 -88l-40 -47l-18 -21q-36 -43 -34 -40q-3 -3 -5 -9h1q2 0 7 5q73 58 152 92q12 6 16 16zM-55 431
q1 0 1 1h-1v-1z" />
    <glyph glyph-name="Aacute" unicode="&#xc1;" horiz-adv-x="235" 
d="M326 873q0 -20 -9 -45q-37 -114 -83 -242l-6 -15q-7 -14 -10 -23l-6 -16q22 -6 49 -26q11 -8 8 -16q-3 -6 -10 -6q-5 0 -9.5 3.5t-7.5 4.5q-22 15 -39 20l-12 -28l-17 -40l-19 -36q-1 -2 -3 -4.5t-3 -6.5l-59 -121q-7 -14 -34 -76q-4 -9 -10 -27q-3 -7 -10 -8
q-12 -2 -18 -2q-5 0 -8 1q-4 2 -8.5 1.5t-6.5 -0.5q-11 3 -10 12q2 22 7 38l18 53l52 131q13 35 32 80q3 8 6 15t5 13q1 0 1 1t-1 1q0 1 -1 1t-1 -1l-27 -13q-70 -40 -127 -89l-21 -17q-10 -9 -23 -7h-8q-7 1 -9 3.5t0 9.5q1 12 9 21l30 37l65 79q18 21 71 90q58 74 53 68
l43 53q-2 -2 32 38q20 24 29 36l13 17q51 64 47 59q8 8 11 9t14 1q8 -1 12 -6q12 -12 9 -25zM123 545l21 49l43 106l10 26q-3 0 -4.5 -3t-2.5 -4q-20 -24 -29 -36l-39 -46l-78 -88l-40 -47l-18 -21q-36 -43 -34 -40q-3 -3 -5 -9h1q2 0 7 5q73 58 152 92q12 6 16 16zM-55 431
q1 0 1 1h-1v-1zM364 1004q-10 0 -16 -10q-3 -4 -21 -35q0 -1 -0.5 -2.5t0.5 -2.5q3 -7 12 -7q5 0 8 4q18 24 26 36q2 2 4 12q0 4 -4 4q-2 1 -5 1h-4z" />
    <glyph glyph-name="Acircumflex" unicode="&#xc2;" horiz-adv-x="235" 
d="M326 873q0 -20 -9 -45q-37 -114 -83 -242l-6 -15q-7 -14 -10 -23l-6 -16q22 -6 49 -26q11 -8 8 -16q-3 -6 -10 -6q-5 0 -9.5 3.5t-7.5 4.5q-22 15 -39 20l-12 -28l-17 -40l-19 -36q-1 -2 -3 -4.5t-3 -6.5l-59 -121q-7 -14 -34 -76q-4 -9 -10 -27q-3 -7 -10 -8
q-12 -2 -18 -2q-5 0 -8 1q-4 2 -8.5 1.5t-6.5 -0.5q-11 3 -10 12q2 22 7 38l18 53l52 131q13 35 32 80q3 8 6 15t5 13q1 0 1 1t-1 1q0 1 -1 1t-1 -1l-27 -13q-70 -40 -127 -89l-21 -17q-10 -9 -23 -7h-8q-7 1 -9 3.5t0 9.5q1 12 9 21l30 37l65 79q18 21 71 90q58 74 53 68
l43 53q-2 -2 32 38q20 24 29 36l13 17q51 64 47 59q8 8 11 9t14 1q8 -1 12 -6q12 -12 9 -25zM123 545l21 49l43 106l10 26q-3 0 -4.5 -3t-2.5 -4q-20 -24 -29 -36l-39 -46l-78 -88l-40 -47l-18 -21q-36 -43 -34 -40q-3 -3 -5 -9h1q2 0 7 5q73 58 152 92q12 6 16 16zM-55 431
q1 0 1 1h-1v-1zM377 996q0 8 -3 14q-2 5 -6 6q-8 2 -12 2q-10 0 -18 -8l-33 -36l-4 -7q-1 -3 1 -5t4 -2q2 1 6 2.5t6 3.5l22 18l9 8q1 2 4 -1l2 -9l5 -16q2 -6 7 -9q4 -2 5 -2q3 0 5 2.5t2 6.5l-2 19v13z" />
    <glyph glyph-name="Adieresis" unicode="&#xc4;" horiz-adv-x="235" 
d="M326 873q0 -20 -9 -45q-37 -114 -83 -242l-6 -15q-7 -14 -10 -23l-6 -16q22 -6 49 -26q11 -8 8 -16q-3 -6 -10 -6q-5 0 -9.5 3.5t-7.5 4.5q-22 15 -39 20l-12 -28l-17 -40l-19 -36q-1 -2 -3 -4.5t-3 -6.5l-59 -121q-7 -14 -34 -76q-4 -9 -10 -27q-3 -7 -10 -8
q-12 -2 -18 -2q-5 0 -8 1q-4 2 -8.5 1.5t-6.5 -0.5q-11 3 -10 12q2 22 7 38l18 53l52 131q13 35 32 80q3 8 6 15t5 13q1 0 1 1t-1 1q0 1 -1 1t-1 -1l-27 -13q-70 -40 -127 -89l-21 -17q-10 -9 -23 -7h-8q-7 1 -9 3.5t0 9.5q1 12 9 21l30 37l65 79q18 21 71 90q58 74 53 68
l43 53q-2 -2 32 38q20 24 29 36l13 17q51 64 47 59q8 8 11 9t14 1q8 -1 12 -6q12 -12 9 -25zM123 545l21 49l43 106l10 26q-3 0 -4.5 -3t-2.5 -4q-20 -24 -29 -36l-39 -46l-78 -88l-40 -47l-18 -21q-36 -43 -34 -40q-3 -3 -5 -9h1q2 0 7 5q73 58 152 92q12 6 16 16zM-55 431
q1 0 1 1h-1v-1zM323 954h3q11 0 15 12l2 10v4q0 5 -2 7t-8 3q-7 1 -21 1q-15 0 -21 -11q-5 -6 0 -11q10 -18 27 -15h5zM383 930q2 0 4.5 -0.5t4.5 0.5q2 3 4 9t2 9q0 6 -6 10q-2 12 -19 12l-5 1q-11 0 -19 -4q-5 -2 -6.5 -6t1.5 -8q8 -13 15 -19t20 -3q1 -1 4 -1z" />
    <glyph glyph-name="Agrave" unicode="&#xc0;" horiz-adv-x="235" 
d="M326 873q0 -20 -9 -45q-37 -114 -83 -242l-6 -15q-7 -14 -10 -23l-6 -16q22 -6 49 -26q11 -8 8 -16q-3 -6 -10 -6q-5 0 -9.5 3.5t-7.5 4.5q-22 15 -39 20l-12 -28l-17 -40l-19 -36q-1 -2 -3 -4.5t-3 -6.5l-59 -121q-7 -14 -34 -76q-4 -9 -10 -27q-3 -7 -10 -8
q-12 -2 -18 -2q-5 0 -8 1q-4 2 -8.5 1.5t-6.5 -0.5q-11 3 -10 12q2 22 7 38l18 53l52 131q13 35 32 80q3 8 6 15t5 13q1 0 1 1t-1 1q0 1 -1 1t-1 -1l-27 -13q-70 -40 -127 -89l-21 -17q-10 -9 -23 -7h-8q-7 1 -9 3.5t0 9.5q1 12 9 21l30 37l65 79q18 21 71 90q58 74 53 68
l43 53q-2 -2 32 38q20 24 29 36l13 17q51 64 47 59q8 8 11 9t14 1q8 -1 12 -6q12 -12 9 -25zM123 545l21 49l43 106l10 26q-3 0 -4.5 -3t-2.5 -4q-20 -24 -29 -36l-39 -46l-78 -88l-40 -47l-18 -21q-36 -43 -34 -40q-3 -3 -5 -9h1q2 0 7 5q73 58 152 92q12 6 16 16zM-55 431
q1 0 1 1h-1v-1zM309 994q-4 0 -5 -2t1 -5q2 -4 23 -35q1 -2 5 -4q3 -2 6 -1.5t4 1.5q2 2 2.5 4t-0.5 4l-8 23q-6 17 -23 15h-5z" />
    <glyph glyph-name="Aring" unicode="&#xc5;" horiz-adv-x="235" 
d="M326 873q0 -20 -9 -45q-37 -114 -83 -242l-6 -15q-7 -14 -10 -23l-6 -16q22 -6 49 -26q11 -8 8 -16q-3 -6 -10 -6q-5 0 -9.5 3.5t-7.5 4.5q-22 15 -39 20l-12 -28l-17 -40l-19 -36q-1 -2 -3 -4.5t-3 -6.5l-59 -121q-7 -14 -34 -76q-4 -9 -10 -27q-3 -7 -10 -8
q-12 -2 -18 -2q-5 0 -8 1q-4 2 -8.5 1.5t-6.5 -0.5q-11 3 -10 12q2 22 7 38l18 53l52 131q13 35 32 80q3 8 6 15t5 13q1 0 1 1t-1 1q0 1 -1 1t-1 -1l-27 -13q-70 -40 -127 -89l-21 -17q-10 -9 -23 -7h-8q-7 1 -9 3.5t0 9.5q1 12 9 21l30 37l65 79q18 21 71 90q58 74 53 68
l43 53q-2 -2 32 38q20 24 29 36l13 17q51 64 47 59q8 8 11 9t14 1q8 -1 12 -6q12 -12 9 -25zM123 545l21 49l43 106l10 26q-3 0 -4.5 -3t-2.5 -4q-20 -24 -29 -36l-39 -46l-78 -88l-40 -47l-18 -21q-36 -43 -34 -40q-3 -3 -5 -9h1q2 0 7 5q73 58 152 92q12 6 16 16zM-55 431
q1 0 1 1h-1v-1zM387 1012q-1 10 -5 13.5t-14 3.5q-5 0 -18 -6t-18 -11q-7 -6 -15 -22q-2 -6 -2 -9t2 -9q6 -13 18 -17q8 -2 11 -2q22 0 32 18q7 13 9 34v7zM357 976q-2 -5 -9 -8q-2 -1 -4 0t-2 3q-2 5 0 9l14 28q1 2 3.5 4t3.5 3l3 1.5t2 0.5q1 -1 1.5 -2.5t1.5 -2.5
q-3 -23 -14 -36z" />
    <glyph glyph-name="Atilde" unicode="&#xc3;" horiz-adv-x="235" 
d="M326 873q0 -20 -9 -45q-37 -114 -83 -242l-6 -15q-7 -14 -10 -23l-6 -16q22 -6 49 -26q11 -8 8 -16q-3 -6 -10 -6q-5 0 -9.5 3.5t-7.5 4.5q-22 15 -39 20l-12 -28l-17 -40l-19 -36q-1 -2 -3 -4.5t-3 -6.5l-59 -121q-7 -14 -34 -76q-4 -9 -10 -27q-3 -7 -10 -8
q-12 -2 -18 -2q-5 0 -8 1q-4 2 -8.5 1.5t-6.5 -0.5q-11 3 -10 12q2 22 7 38l18 53l52 131q13 35 32 80q3 8 6 15t5 13q1 0 1 1t-1 1q0 1 -1 1t-1 -1l-27 -13q-70 -40 -127 -89l-21 -17q-10 -9 -23 -7h-8q-7 1 -9 3.5t0 9.5q1 12 9 21l30 37l65 79q18 21 71 90q58 74 53 68
l43 53q-2 -2 32 38q20 24 29 36l13 17q51 64 47 59q8 8 11 9t14 1q8 -1 12 -6q12 -12 9 -25zM123 545l21 49l43 106l10 26q-3 0 -4.5 -3t-2.5 -4q-20 -24 -29 -36l-39 -46l-78 -88l-40 -47l-18 -21q-36 -43 -34 -40q-3 -3 -5 -9h1q2 0 7 5q73 58 152 92q12 6 16 16zM-55 431
q1 0 1 1h-1v-1zM296 984q-6 -4 -9 -12q-1 -3 0 -6t3 -4q3 0 6 3q14 9 18 11q5 3 10 -2l3 -3l8 -9q8 -6 13 -6l9 -2h4q7 0 12 4q2 1 4 3t6 4l3 4q3 3 3 9q0 2 -1 2q-2 0 -5.5 0.5t-6.5 -1.5l-12 -5q-6 -3 -9 -3t-10 7l-8 7q-6 5 -13 6t-9 1q-12 -2 -19 -8z" />
    <glyph glyph-name="AE" unicode="&#xc6;" horiz-adv-x="450" 
d="M658.5 905q-0.5 -1 -1.5 -1l-10 -3q-28 -6 -46 -8q-8 -1 -34 -4t-48 -3q-17 0 -25 1q-5 0 -7 -1.5t-4 -6.5q-5 -21 -10 -34q-15 -46 -44 -106q-16 -30 -52 -90l-8 -14q-1 -3 3 -3q5 -2 10 0l87 7h17q8 0 12 -6q5 -7 -2 -8q-36 -8 -41 -9q-14 -3 -31.5 -8t-26.5 -7
q-29 -7 -49 -11q-9 -2 -13 -8l-21 -31q-17 -26 -53 -78q-5 -8 -9.5 -15.5t-7.5 -13.5q-2 -2 -2 -3q-4 -12 -4 -14q0 -6 15 -7q36 -2 53 -4q39 1 78 6q6 1 17 1h2q8 0 15 -10q1 -2 -2 -4l-14 -4q-40 -8 -60 -11l-41 -6q-9 -1 -28 -1q-32 0 -57 4q-14 3 -17 4q-13 -21 -37 -63
q-11 -18 -41 -73q-4 -6 -7 -14t-5 -12q-4 -6 -11 -7h-10q-11 0 -16 2q-3 1 -7.5 1t-7.5 1q-10 4 -9 13q5 24 11 37l22 51l63 126l39 77q3 8 7 14.5t7 12.5q1 0 1 1t-1 1q0 1 -1 1t-1 -1l-28 -10q-72 -34 -134 -78l-23 -15q-10 -9 -23 -5q-5 0 -8 1q-7 1 -8.5 3.5t0.5 9.5
q3 14 11 20l33 35l71 73q18 17 78 82q12 13 26.5 29t33.5 35q15 16 28 29t23 24l31 31l32 34q44 48 67 70q8 7 11 8t14 0l4 -1h17t18 -1.5t10 -5.5q5 -3 9 -2q22 3 44 3q23 0 35 -1l35 -1q8 0 14.5 -1t13.5 -1q15 -1 24 -14q1 -1 2 -2.5t2 -4.5q1 -1 0.5 -2zM201 583
q10 4 17 14l25 47l52 102q2 5 6 12.5t6 12.5q-3 0 -4.5 -2.5t-2.5 -3.5l-30 -31l-45 -45l-85 -81l-44 -43l-58 -56q-3 -3 -5 -9q3 -1 8 4q79 52 160 79zM32 500h-1v-1q1 0 1 1z" />
    <glyph glyph-name="B" unicode="B" horiz-adv-x="427" 
d="M470 502q1 -1 2 -2.5t1 -3.5q0 -5 -14 -10q-48 -25 -84 -42l-53 -25l-8 -4q-7 -2 -14 -11q-27 -42 -75 -86q-59 -58 -141 -106q-6 -4 -18 -10q-52 -26 -78 -38q-22 -12 -48 -15q-5 -1 -14 -1q-12 2 -19 2q-10 1 -13.5 6.5t-3.5 17.5q0 23 13 42q14 22 41 42q28 22 70 41
l110 49l28 13q38 18 88 40q13 6 19 14l34 42q6 7 12 21q4 10 4 15q0 3 -2 9q-1 6 -7 3l-12 -6q-23 -12 -42 -15q-3 0 -8 -0.5t-8 0.5q-4 0 -10 0.5t-10 -0.5q-7 0 -7 6q2 20 13 27l29 19q21 10 41 26q55 47 81 81q39 49 56 90q4 7 5 14q2 10 2 15q0 21 -18 38q-24 21 -56 21
q-44 -1 -97 -13q-108 -28 -189 -73q-32 -16 -69 -47q-45 -36 -73 -92q-2 -5 -8 -15q-10 -17 -25 -13q-5 2 -10.5 5.5t-8.5 6.5q-11 12 -9 34q6 50 36 84q37 42 85 70q48 31 124 59q73 26 158 40q29 4 64 4q31 0 46 -2q35 -4 52 -10q40 -13 60 -41l8 -9q19 -20 19 -49
q0 -11 -1 -16q-4 -30 -27 -72q-21 -38 -61 -78q-33 -32 -78 -59l-13 -8q-6 -4 -6.5 -5.5t2.5 -8.5q4 -8 4 -19q0 -9 -3 -20l-10 -28q-1 -1 -0.5 -1.5t0.5 -1.5t1 -1t2 1l19 9q19 9 30 14t17 8l58 28q13 7 17 0zM-15 336q-7 0 -9 2.5t0 9.5q0 4 2 12q2 10 10 11q6 1 13 10
q26 39 41 68q14 27 27 59q8 21 33 67q24 45 45 90q12 26 22 46q6 14 18 23q5 3 6 -2q0 -2 1.5 -2h2.5l13 3h3q9 0 18 -9q7 -7 11 -14q1 -2 2 -5.5t1 -5.5q-1 -4 -2 -10t-4 -14q-16 -53 -44 -108q-14 -30 -27 -52q-10 -17 -23 -35l-58 -83q-22 -30 -35 -45q-19 -20 -52 -17
q-5 1 -15 1zM204 361v0.5t-1 0.5h-1l-5 -2l-92 -45q-60 -30 -98 -57q-28 -20 -46 -39q-16 -16 -22 -31v-4q1 0 2 -0.5t2 0.5q4 1 12 5q57 26 113 63q26 17 55.5 41t57.5 47l21 19z" />
    <glyph glyph-name="C" unicode="C" horiz-adv-x="275" 
d="M313 484h-4q-7 0 -11 -4q-16 -9 -70 -46q-31 -21 -35 -23q-28 -19 -88 -40l-16 -3h-13q-11 2 -14 12l-3 14q-1 5 -1 15q0 14 3 27q5 35 23 84q31 81 82 165q42 70 118 153q-1 -1 26 23q4 3 12 7q4 2 6 2q3 0 7 -4q4 -2 8 -9q5 -5 9 -21q3 -18 3 -36q0 -33 -8 -57
q-12 -46 -42 -105q-2 -5 -4 -9t-3 -7q-1 -1 -0.5 -2t0.5 -2q2 -2 4 0q5 3 15 11q12 14 22 33q28 46 37 84q8 32 10 70q0 18 -4 31q-7 22 -24.5 34.5t-41.5 12.5q-20 0 -42 -10q-39 -17 -79 -55q-92 -92 -144 -196q-38 -74 -50 -142q-6 -36 -6 -54q0 -8 2 -26q3 -20 11 -33
q11 -23 38 -29q13 -4 30 -4q8 0 24 2q31 5 86 38q25 17 62.5 43.5t65.5 47.5q7 7 -1 8z" />
    <glyph glyph-name="Ccedilla" unicode="&#xc7;" horiz-adv-x="275" 
d="M386 816q-2 -38 -10 -70q-9 -38 -37 -84q-10 -19 -22 -33q-10 -8 -15 -11q-2 -2 -4 0q0 1 -0.5 2t0.5 2q1 3 3 7t4 9q30 59 42 105q8 24 8 57q0 18 -3 36q-4 16 -9 21q-4 7 -8 9q-6 6 -13 2q-8 -4 -12 -7q-27 -24 -26 -23q-76 -83 -118 -153q-51 -84 -82 -165
q-18 -49 -23 -84q-3 -13 -3 -27q0 -10 1 -15l3 -14q3 -10 14 -12h13l16 3q60 21 88 40q4 2 35 23q54 37 70 46q4 4 11 4q13 0 5 -8q-28 -21 -65.5 -47.5t-62.5 -43.5q-55 -33 -86 -38q-8 -2 -25 -2q-13 0 -19 1q-2 -8 -2 -11q-1 -3 -0.5 -5t4.5 -3q8 0 13 -6q6 -7 6 -16
q0 -7 -2 -11q-7 -15 -24 -15h-2q-18 0 -23 19q0 4 3 4q7 0 11 -5q5 -5 9 -5t9 6q7 9 4 17q-2 3 -5 4t-6 0l-8 -6q-4 -2 -7 2q-2 2 0 5q2 9 8 27l1 2q-25 6 -37 29q-8 13 -11 33q-2 18 -2 26q0 18 6 54q12 68 50 142q52 104 144 196q40 38 79 55q22 10 42 10q24 0 41.5 -12.5
t24.5 -34.5q4 -13 4 -31z" />
    <glyph glyph-name="D" unicode="D" horiz-adv-x="395" 
d="M424 498q1 0 3 1t5 1q7 0 9 -6l1 -4q0 -4 -3.5 -7t-4.5 -4q-52 -18 -99 -36t-50 -22q-23 -37 -32 -48q-49 -67 -125 -113q-34 -21 -84 -31q-22 -4 -33 -5q-5 -1 -14 -1q-8 0 -22 2l-4 1q-26 8 -26 27q0 7 3 16q9 25 33 47q25 22 66 43q19 9 43.5 18.5t33.5 12.5l14 4
q15 5 17 6.5t11 16.5q48 76 93 161q28 48 32 56q29 57 41 118q4 20 4 30q0 15 -5 33q-5 17 -14 26q-7 9 -19 7l-11 -3q-41 -12 -85 -40q-75 -47 -129 -108l-21 -25l-14 -17l-12 -12q-1 -3 -5 -3h-2q-2 0 -4 2t-1 4l14 36q14 29 45 62q45 48 88 77q35 23 73 36q25 9 44 14
q11 4 24 4q12 0 24 -3q20 -3 38 -24q20 -23 29.5 -50.5t9.5 -64.5q0 -55 -19 -112q-20 -57 -67 -147l-3 -4q-1 -2 -3 -5.5t-1 -5.5q2 0 6 1t6 2zM199 715q-4 10 -11 10q-3 1 -10 1q-10 0 -17 -8l-13 -17q-22 -36 -36 -70q-30 -69 -63 -131q-9 -17 -15 -34q-3 -11 -11 -31
q-1 -3 -9.5 -19.5t-7.5 -23.5q2 -5 7 -5q9 2 13 1q3 -1 8 -1q6 0 11 1t9 2q8 1 18 9l7 9q20 26 32 44t21 38l18 36q24 48 45 118q8 30 7 54zM129 366h-3q-42 -18 -67.5 -30.5t-49.5 -30.5q-14 -11 -26 -23q-11 -11 -16 -27l-1 -5q0 -6 8 -9q2 -1 5.5 -2t5.5 -1t6 1t7 2
l43 21q20 9 37 30q12 14 14 18q18 24 37 52q1 1 0 4z" />
    <glyph glyph-name="Eth" unicode="&#xd0;" horiz-adv-x="600" 
 />
    <glyph glyph-name="E" unicode="E" horiz-adv-x="232" 
d="M50 382q-15 1 -15 7q0 2 4 14q0 1 2 3q3 6 7.5 13.5t9.5 15.5q36 52 53 78l21 31q4 6 13 8q20 4 49 11q9 2 26.5 7t31.5 8q5 1 41 9q7 1 2 8q-5 6 -12 6h-17l-87 -7q-5 -2 -10 0q-4 0 -3 3l8 14q36 60 52 90q29 60 44 106q5 13 10 34q2 5 4 6.5t7 1.5q8 -1 25 -1
q22 0 48 3t34 4q18 2 46 8l10 3q1 0 1.5 1t-0.5 2q-1 3 -2 4.5t-2 2.5q-9 13 -24 14q-7 0 -13.5 1t-14.5 1l-35 1q-12 1 -35 1q-21 0 -44 -3q-4 -1 -9 2q-6 9 -19 9q-5 0 -8 -1q-2 -1 -3 -1h-2q-2 4 -4 3t-4 -3q-5 -3 -9 -10q-12 -17 -27 -48l-17 -34l-17 -34
q-35 -70 -98 -170q-36 -57 -65 -107q-21 -32 -29 -64q-5 -18 -5 -34q0 -28 23 -40q8 -4 21 -6q25 -4 57 -4q19 0 28 1l41 6q20 3 60 11l14 4q3 2 2 4q-6 11 -17 10q-11 0 -17 -1q-39 -4 -78 -6q-17 2 -53 4z" />
    <glyph glyph-name="Eacute" unicode="&#xc9;" horiz-adv-x="232" 
d="M50 382q-15 1 -15 7q0 2 4 14q0 1 2 3q3 6 7.5 13.5t9.5 15.5q36 52 53 78l21 31q4 6 13 8q20 4 49 11q9 2 26.5 7t31.5 8q5 1 41 9q7 1 2 8q-5 6 -12 6h-17l-87 -7q-5 -2 -10 0q-4 0 -3 3l8 14q36 60 52 90q29 60 44 106q5 13 10 34q2 5 4 6.5t7 1.5q8 -1 25 -1
q22 0 48 3t34 4q18 2 46 8l10 3q1 0 1.5 1t-0.5 2q-1 3 -2 4.5t-2 2.5q-9 13 -24 14q-7 0 -13.5 1t-14.5 1l-35 1q-12 1 -35 1q-21 0 -44 -3q-4 -1 -9 2q-6 9 -19 9q-5 0 -8 -1q-2 -1 -3 -1h-2q-2 4 -4 3t-4 -3q-5 -3 -9 -10q-12 -17 -27 -48l-17 -34l-17 -34
q-35 -70 -98 -170q-36 -57 -65 -107q-21 -32 -29 -64q-5 -18 -5 -34q0 -28 23 -40q8 -4 21 -6q25 -4 57 -4q19 0 28 1l41 6q20 3 60 11l14 4q3 2 2 4q-6 11 -17 10q-11 0 -17 -1q-39 -4 -78 -6q-17 2 -53 4zM370 998q-10 0 -16 -10q-3 -4 -21 -35q0 -1 -0.5 -2.5t0.5 -2.5
q3 -7 12 -7q5 0 8 4q18 24 26 36q2 2 4 12q0 4 -4 4q-2 1 -5 1h-4z" />
    <glyph glyph-name="Ecircumflex" unicode="&#xca;" horiz-adv-x="232" 
d="M50 382q-15 1 -15 7q0 2 4 14q0 1 2 3q3 6 7.5 13.5t9.5 15.5q36 52 53 78l21 31q4 6 13 8q20 4 49 11q9 2 26.5 7t31.5 8q5 1 41 9q7 1 2 8q-5 6 -12 6h-17l-87 -7q-5 -2 -10 0q-4 0 -3 3l8 14q36 60 52 90q29 60 44 106q5 13 10 34q2 5 4 6.5t7 1.5q8 -1 25 -1
q22 0 48 3t34 4q18 2 46 8l10 3q1 0 1.5 1t-0.5 2q-1 3 -2 4.5t-2 2.5q-9 13 -24 14q-7 0 -13.5 1t-14.5 1l-35 1q-12 1 -35 1q-21 0 -44 -3q-4 -1 -9 2q-6 9 -19 9q-5 0 -8 -1q-2 -1 -3 -1h-2q-2 4 -4 3t-4 -3q-5 -3 -9 -10q-12 -17 -27 -48l-17 -34l-17 -34
q-35 -70 -98 -170q-36 -57 -65 -107q-21 -32 -29 -64q-5 -18 -5 -34q0 -28 23 -40q8 -4 21 -6q25 -4 57 -4q19 0 28 1l41 6q20 3 60 11l14 4q3 2 2 4q-6 11 -17 10q-11 0 -17 -1q-39 -4 -78 -6q-17 2 -53 4zM401 984q0 8 -3 14q-2 5 -6 6q-8 2 -12 2q-10 0 -18 -8l-33 -36
l-4 -7q-1 -3 1 -5t4 -2q2 1 6 2.5t6 3.5l22 18l9 8q1 2 4 -1l2 -9l5 -16q2 -6 7 -9q4 -2 5 -2q3 0 5 2.5t2 6.5l-2 19v13z" />
    <glyph glyph-name="Edieresis" unicode="&#xcb;" horiz-adv-x="232" 
d="M50 382q-15 1 -15 7q0 2 4 14q0 1 2 3q3 6 7.5 13.5t9.5 15.5q36 52 53 78l21 31q4 6 13 8q20 4 49 11q9 2 26.5 7t31.5 8q5 1 41 9q7 1 2 8q-5 6 -12 6h-17l-87 -7q-5 -2 -10 0q-4 0 -3 3l8 14q36 60 52 90q29 60 44 106q5 13 10 34q2 5 4 6.5t7 1.5q8 -1 25 -1
q22 0 48 3t34 4q18 2 46 8l10 3q1 0 1.5 1t-0.5 2q-1 3 -2 4.5t-2 2.5q-9 13 -24 14q-7 0 -13.5 1t-14.5 1l-35 1q-12 1 -35 1q-21 0 -44 -3q-4 -1 -9 2q-6 9 -19 9q-5 0 -8 -1q-2 -1 -3 -1h-2q-2 4 -4 3t-4 -3q-5 -3 -9 -10q-12 -17 -27 -48l-17 -34l-17 -34
q-35 -70 -98 -170q-36 -57 -65 -107q-21 -32 -29 -64q-5 -18 -5 -34q0 -28 23 -40q8 -4 21 -6q25 -4 57 -4q19 0 28 1l41 6q20 3 60 11l14 4q3 2 2 4q-6 11 -17 10q-11 0 -17 -1q-39 -4 -78 -6q-17 2 -53 4zM337 962h3q11 0 15 12l2 10v4q0 5 -2 7t-8 3q-7 1 -21 1
q-15 0 -21 -11q-5 -6 0 -11q10 -18 27 -15h5zM397 938q2 0 4.5 -0.5t4.5 0.5q2 3 4 9t2 9q0 6 -6 10q-2 12 -19 12l-5 1q-11 0 -19 -4q-5 -2 -6.5 -6t1.5 -8q8 -13 15 -19t20 -3q1 -1 4 -1z" />
    <glyph glyph-name="Egrave" unicode="&#xc8;" horiz-adv-x="232" 
d="M50 382q-15 1 -15 7q0 2 4 14q0 1 2 3q3 6 7.5 13.5t9.5 15.5q36 52 53 78l21 31q4 6 13 8q20 4 49 11q9 2 26.5 7t31.5 8q5 1 41 9q7 1 2 8q-5 6 -12 6h-17l-87 -7q-5 -2 -10 0q-4 0 -3 3l8 14q36 60 52 90q29 60 44 106q5 13 10 34q2 5 4 6.5t7 1.5q8 -1 25 -1
q22 0 48 3t34 4q18 2 46 8l10 3q1 0 1.5 1t-0.5 2q-1 3 -2 4.5t-2 2.5q-9 13 -24 14q-7 0 -13.5 1t-14.5 1l-35 1q-12 1 -35 1q-21 0 -44 -3q-4 -1 -9 2q-6 9 -19 9q-5 0 -8 -1q-2 -1 -3 -1h-2q-2 4 -4 3t-4 -3q-5 -3 -9 -10q-12 -17 -27 -48l-17 -34l-17 -34
q-35 -70 -98 -170q-36 -57 -65 -107q-21 -32 -29 -64q-5 -18 -5 -34q0 -28 23 -40q8 -4 21 -6q25 -4 57 -4q19 0 28 1l41 6q20 3 60 11l14 4q3 2 2 4q-6 11 -17 10q-11 0 -17 -1q-39 -4 -78 -6q-17 2 -53 4zM351 999q-4 0 -5 -2t1 -5q2 -4 23 -35q1 -2 5 -4q3 -2 6 -1.5
t4 1.5q2 2 2.5 4t-0.5 4l-8 23q-6 17 -23 15h-5z" />
    <glyph glyph-name="F" unicode="F" horiz-adv-x="330" 
d="M745 920l-5 -3l-33 -2l-122 -12l-112 -15l-63 -9q-4 -1 -5 -2t-1 -6q0 -6 -1 -9q-35 -141 -100 -278l-15 -30q0 -3 1 -4l3 -1q19 5 57 13q56 13 94 20q2 1 7 1l2 -2v-0.5t-1 -0.5q-2 -1 -4 -3t-5 -4q-12 -4 -19 -5l-130 -30q-6 -2 -8 -2q-8 -1 -11 -9l-13 -23
q-31 -55 -63 -91q-63 -70 -141 -106q-43 -20 -88 -20q-44 0 -72 22q-15 12 -23 25q-10 16 -10 33q0 23 18 42q15 14 38 28q38 22 105 46q13 4 75 21l35 9q24 6 35 8q14 3 20 15l28 56q40 83 76 170q30 68 50 99q1 1 1 4q-10 0 -15 -1q-75 -18 -97 -23l-22 -5
q-120 -30 -232 -50l-23 -4q-12 -2 -19 -2q-8 0 -9 2q-1 1 -1 4q0 4 3 7q7 7 12 10q16 11 43 20q23 9 51.5 16.5t37.5 9.5l21 6q82 23 154 35q16 3 55 7q51 7 142 16l113 12l87 7q21 2 64 2q10 0 16 -1q11 -2 16 -8zM171 506q-1 1 -3 1l-6 -1l-29 -8q-62 -16 -93 -26
q-60 -21 -103 -44q-27 -16 -42 -29q-15 -14 -15 -32q0 -15 9 -27q21 -30 62 -33l14 2q14 3 22 7q37 15 78 51q44 40 81 96q3 5 25 40v3z" />
    <glyph glyph-name="G" unicode="G" horiz-adv-x="330" 
d="M164 335q41 15 77 47q41 40 62 77q4 8 8 22q2 7 -1 12q-20 30 -48 33q-8 1 -24 1q-20 0 -30 -2q-7 -2 -9.5 -4t-3.5 -9v-3q0 -5 6 -7q5 -2 17.5 -6t23.5 -5q10 -2 14 -4q7 -2 9.5 -5.5t1.5 -10.5q0 -1 -0.5 -3.5t-2.5 -5.5q-5 -11 -10 -19q-37 -56 -104 -84
q-31 -12 -56 -12q-12 0 -30 7q-11 6 -16 20q-4 16 -3 34q4 32 19 69q16 42 43 93q26 50 36 66q38 60 92 111q48 46 84 69q7 4 12.5 7t9.5 5q5 4 12 0q10 -6 17 -20q7 -19 7 -35q0 -28 -21 -66q-20 -36 -50 -69l-18 -23q-5 -5 0 -7q1 -1 3.5 -0.5t3.5 0.5t4 3q63 46 102 122
q15 26 15 62q0 38 -32 62q-15 12 -31 13q-15 2 -49 4q-6 0 -18 -2q-41 -5 -87 -36q-44 -31 -82 -72q-107 -109 -141 -252q-11 -52 -10 -85q0 -40 24.5 -67.5t58.5 -33.5q11 -2 33 -4q44 -2 82 13z" />
    <glyph glyph-name="H" unicode="H" horiz-adv-x="220" 
d="M240 895q-1 16 -11 24t-25 7q-10 0 -19 -6l-34 -29q-61 -61 -99 -127q-24 -41 -33 -76q-4 -24 -4 -35q0 -60 53 -69l10 -2q5 0 3 -4q-2 -6 -4 -9l-71 -151q-21 -44 -39 -87q-4 -9 -8 -27q-1 -2 -1 -8t1 -9q0 -1 5 -4q2 -1 3.5 1l1.5 2q5 11 10 19l12 20q22 36 32 54
q60 104 93 172q4 9 7.5 16t5.5 12l7 8q1 1 6 1q4 -1 0 -5l-18 -45q-17 -52 -41 -110l-12 -32q-15 -36 -27 -72q-5 -16 -13 -48l-1 -9l1 -9q0 -6 6 -8q5 -1 16 -1q9 0 13 2t4 4v3q0 12 7 29q31 86 70 162q8 17 26 49l19 31q21 33 38 62l89 166q18 34 52 104q4 8 10 24
q2 4 0 6q-5 8 -9 11t-11 2q-2 0 -4 -0.5t-4 0.5l-4 1q-6 0 -14 -8t-9 -10q-26 -32 -38 -49q-38 -52 -79 -126q-34 -62 -50 -94l-6 -9q-2 -2 -8 -4q0 -1 -1 0t-1 2q2 8 4 11l11 27l8 19q12 28 34 86q27 66 34 92q7 28 7 48q0 3 -1 5zM54 712q33 75 99 144q12 14 39 38
q3 3 9 7l3 -2q0 -7 -2 -17q-10 -44 -25 -81l-55 -133q-5 -12 -29 -65q-3 -7 -5.5 -8.5t-9.5 0.5q-30 6 -37 35q-1 3 -1 6t-1 5q-1 31 15 71z" />
    <glyph glyph-name="I" unicode="I" horiz-adv-x="165" 
d="M72 427q-1 2 2 2l-1 2q0 2 5 7q9 13 16 23t12 17q49 69 76 123q9 16 25 50l14 29l60 133q13 31 15 52l1 5q0 5 -5 10q-1 1 -2 3t-2 3q-11 16 -29 11q-2 0 -6 -1.5t-6 3.5q-1 1 -2.5 0.5t-2.5 -1.5q-11 -11 -15 -17q-10 -12 -19 -28l-25 -47l-59 -126q-21 -44 -61 -132
l-57 -118q-12 -24 -17 -43q-3 -10 -3 -14q0 -5 3 -6t8.5 -1.5t8.5 -0.5q20 0 43 14.5t43 30t27 21.5l72 58q6 6 6 9q0 4 -5 4q-7 0 -13 -6q-2 -1 -32.5 -19.5t-62.5 -41.5q-3 -3 -5.5 -4t-4.5 -2z" />
    <glyph glyph-name="Iacute" unicode="&#xcd;" horiz-adv-x="165" 
d="M72 427q-1 2 2 2l-1 2q0 2 5 7q9 13 16 23t12 17q49 69 76 123q9 16 25 50l14 29l60 133q13 31 15 52l1 5q0 5 -5 10q-1 1 -2 3t-2 3q-11 16 -29 11q-2 0 -6 -1.5t-6 3.5q-1 1 -2.5 0.5t-2.5 -1.5q-11 -11 -15 -17q-10 -12 -19 -28l-25 -47l-59 -126q-21 -44 -61 -132
l-57 -118q-12 -24 -17 -43q-3 -10 -3 -14q0 -5 3 -6t8.5 -1.5t8.5 -0.5q20 0 43 14.5t43 30t27 21.5l72 58q6 6 6 9q0 4 -5 4q-7 0 -13 -6q-2 -1 -32.5 -19.5t-62.5 -41.5q-3 -3 -5.5 -4t-4.5 -2zM315 993q-10 0 -16 -10q-3 -4 -21 -35q0 -1 -0.5 -2.5t0.5 -2.5q3 -7 12 -7
q5 0 8 4q18 24 26 36q2 2 4 12q0 4 -4 4q-2 1 -5 1h-4z" />
    <glyph glyph-name="Icircumflex" unicode="&#xce;" horiz-adv-x="165" 
d="M72 427q-1 2 2 2l-1 2q0 2 5 7q9 13 16 23t12 17q49 69 76 123q9 16 25 50l14 29l60 133q13 31 15 52l1 5q0 5 -5 10q-1 1 -2 3t-2 3q-11 16 -29 11q-2 0 -6 -1.5t-6 3.5q-1 1 -2.5 0.5t-2.5 -1.5q-11 -11 -15 -17q-10 -12 -19 -28l-25 -47l-59 -126q-21 -44 -61 -132
l-57 -118q-12 -24 -17 -43q-3 -10 -3 -14q0 -5 3 -6t8.5 -1.5t8.5 -0.5q20 0 43 14.5t43 30t27 21.5l72 58q6 6 6 9q0 4 -5 4q-7 0 -13 -6q-2 -1 -32.5 -19.5t-62.5 -41.5q-3 -3 -5.5 -4t-4.5 -2zM328 985q0 8 -3 14q-2 5 -6 6q-8 2 -12 2q-10 0 -18 -8l-33 -36l-4 -7
q-1 -3 1 -5t4 -2q2 1 6 2.5t6 3.5l22 18l9 8q1 2 4 -1l2 -9l5 -16q2 -6 7 -9q4 -2 5 -2q3 0 5 2.5t2 6.5l-2 19v13z" />
    <glyph glyph-name="Idieresis" unicode="&#xcf;" horiz-adv-x="165" 
d="M72 427q-1 2 2 2l-1 2q0 2 5 7q9 13 16 23t12 17q49 69 76 123q9 16 25 50l14 29l60 133q13 31 15 52l1 5q0 5 -5 10q-1 1 -2 3t-2 3q-11 16 -29 11q-2 0 -6 -1.5t-6 3.5q-1 1 -2.5 0.5t-2.5 -1.5q-11 -11 -15 -17q-10 -12 -19 -28l-25 -47l-59 -126q-21 -44 -61 -132
l-57 -118q-12 -24 -17 -43q-3 -10 -3 -14q0 -5 3 -6t8.5 -1.5t8.5 -0.5q20 0 43 14.5t43 30t27 21.5l72 58q6 6 6 9q0 4 -5 4q-7 0 -13 -6q-2 -1 -32.5 -19.5t-62.5 -41.5q-3 -3 -5.5 -4t-4.5 -2zM278 952h3q11 0 15 12l2 10v4q0 5 -2 7t-8 3q-7 1 -21 1q-15 0 -21 -11
q-5 -6 0 -11q10 -18 27 -15h5zM338 928q2 0 4.5 -0.5t4.5 0.5q2 3 4 9t2 9q0 6 -6 10q-2 12 -19 12l-5 1q-11 0 -19 -4q-5 -2 -6.5 -6t1.5 -8q8 -13 15 -19t20 -3q1 -1 4 -1z" />
    <glyph glyph-name="Igrave" unicode="&#xcc;" horiz-adv-x="165" 
d="M72 427q-1 2 2 2l-1 2q0 2 5 7q9 13 16 23t12 17q49 69 76 123q9 16 25 50l14 29l60 133q13 31 15 52l1 5q0 5 -5 10q-1 1 -2 3t-2 3q-11 16 -29 11q-2 0 -6 -1.5t-6 3.5q-1 1 -2.5 0.5t-2.5 -1.5q-11 -11 -15 -17q-10 -12 -19 -28l-25 -47l-59 -126q-21 -44 -61 -132
l-57 -118q-12 -24 -17 -43q-3 -10 -3 -14q0 -5 3 -6t8.5 -1.5t8.5 -0.5q20 0 43 14.5t43 30t27 21.5l72 58q6 6 6 9q0 4 -5 4q-7 0 -13 -6q-2 -1 -32.5 -19.5t-62.5 -41.5q-3 -3 -5.5 -4t-4.5 -2zM273 992q-4 0 -5 -2t1 -5q2 -4 23 -35q1 -2 5 -4q3 -2 6 -1.5t4 1.5
q2 2 2.5 4t-0.5 4l-8 23q-6 17 -23 15h-5z" />
    <glyph glyph-name="J" unicode="J" horiz-adv-x="215" 
d="M15 292q32 23 58 54q28 32 55 87q7 15 21 19q24 8 72 26l36 13q13 5 13 12q0 3 -5 3t-16 -4q-26 -9 -58.5 -19.5t-45.5 -14.5q17 35 39 97q3 10 8 22q8 21 62 163l24 63q22 51 29 103l1 8q0 18 -17 35q-4 4 -7 4q-4 1 -12 1q-12 0 -19 -7l-12 -12q-4 -5 -8.5 -10.5
t-9.5 -12.5q-13 -18 -29 -26l-54 -32l-19 -11q-46 -28 -65 -45q-19 -16 -29 -38.5t-10 -47.5q0 -21 7 -39q8 -22 27 -36q11 -7 21 -7l4 2q0 2 -1 3q-3 5 -6 9.5t-6 9.5q-15 26 -15 53q0 23 12 47q15 30 41 50q17 14 39.5 27.5t43.5 25.5h3q1 -1 1 -4q-23 -52 -27 -61
q-41 -101 -64 -172l-44 -135l-8 -24q-7 -19 -11 -34t-19 -20q-10 -3 -22 -9t-17 -8q-36 -16 -58 -32q-25 -18 -33 -40q-3 -7 -3 -15q0 -14 11 -24q11 -11 29 -14l25 -2q41 2 68 19zM-75 298q-3 0 -7 2q-11 6 -11 17q0 7 2 11q5 12 19 24q34 30 86 50q4 0 4 -1q2 -2 0 -4
q-18 -47 -54 -85q-12 -14 -34 -15q-2 1 -5 1z" />
    <glyph glyph-name="K" unicode="K" horiz-adv-x="276" 
d="M380 786q-19 -12 -44 -37q-42 -40 -97 -81l-84 -60l-22 -18q-6 -4 -12 -13q-6 -7 -6 -15q0 -7 4 -12l13 -19q18 -31 24 -66q3 -21 3 -43q0 -16 -2 -50l-4 -57v-17q1 -6 9 1t17.5 17.5t14.5 15.5q10 9 33.5 47t31.5 51q25 42 30 49q4 5 8 7t7 1.5t4 -0.5t3.5 -0.5t3.5 -3
t-1 -7.5q-17 -32 -48.5 -89t-46.5 -83q-5 -7 -17 -21q-10 -14 -28 -30q-9 -8 -19 -9l-15 -3q-7 -3 -15 -3q-6 0 -9 1q-7 1 -19 1h-10q-14 2 -18 14q-4 14 -4 22q-1 16 1 46l4 39q2 13 4 39q6 45 5 84l-1 19q0 2 -2 2t-2 -2q-12 -24 -19 -36q-42 -80 -64 -120q-8 -13 -14 -23
t-11 -17q-46 -70 -68 -106q-61 -93 -117 -169l-19 -23q-5 -7 -14 -8q-14 -2 -20 -2q-8 0 -12 1l-18 -1q-5 0 -5 5q1 3 3.5 14t7.5 19l131 205q15 24 25 42q22 38 38 71l45 82q46 88 70 132l28 52q15 29 47 87q17 31 57 93q3 5 29 44l12 18l12 18q6 7 14 7q13 0 15 -11
q0 -9 -1 -14q-6 -27 -22 -69l-47 -116q-1 -1 -1 -4q3 0 7 2l145 90l43 26q8 5 21 5q6 0 9 -6q2 -4 -1 -5z" />
    <glyph glyph-name="L" unicode="L" horiz-adv-x="156" 
d="M347 350q0 -9 -22 -9q-54 0 -96.5 -3t-109 -22.5t-127.5 -62.5q-5 -3 -24 -13q-16 -11 -28 -12q-2 0 -8 -2q-6 -1 -7 5q-2 10 -2 11q0 4 7 14q32 45 63 110q6 12 15 32.5t14 32.5q13 27 36.5 99t29.5 96q13 49 23 117q11 65 22 102q10 30 20 43l6 8q10 12 28 12h13
q22 3 41 -13l12 -10q11 -11 14 -29q3 -15 3 -32q0 -36 -12 -79q-19 -60 -47 -119q-22 -44 -44 -65q-6 -6 -13 -6q-3 3 -2 4l2 3q18 25 34 70q23 62 35 125q4 28 4 42q0 11 -1 16q-2 22 -9 35q-2 8 -7 9l-4 -9q-10 -25 -17 -64l-18 -103q-11 -62 -24 -102q-8 -26 -25 -72
t-25 -62l-11 -23q-16 -39 -40 -82l-21 -32q83 39 176 44q40 5 84 5q26 0 38.5 -1t13.5 -1q6 0 8 -2t2 -3v-2z" />
    <glyph glyph-name="M" unicode="M" horiz-adv-x="356" 
d="M283 384q15 0 21 16l3 6l15 40q3 9 13.5 37.5t21.5 52.5q7 15 9 32v5q0 13 -9 21q-2 2 -4 6q-11 12 -23 12q-6 0 -12 -3h-3q-2 -1 -4 2q-1 1 -2 1t-2 -1q-6 -6 -7 -9q-9 -21 -29 -52l-24 -40l-21 -33l-6 -7h-2q-1 0 -1 0.5v0.5v4q3 52 17 107l19 76q11 39 31 117l21 87
l2 15q0 5 -4 11q-10 13 -25 12q-1 -1 -4 -1q-2 1 -5 1q-8 0 -15 -9q-4 -3 -10 -11q-25 -32 -30 -41q-31 -50 -53 -90q-39 -68 -111 -208l-60 -121l-16 -33q-22 -44 -32 -66l-36 -84q-3 -8 -5.5 -14t-4.5 -11q-13 -31 -21 -61q-2 -6 -4 -18q0 -5 6 -7h5q12 0 20 8q5 5 13 15
q11 14 38 56l73 123q32 54 47 82l69 127q55 105 95 193l4 7h0.5t0.5 1l1 -2l-1 -6l-37 -192q-8 -47 -11 -76q-1 -4 -1 -10q1 -6 3 -7.5t8 -2.5h5q12 0 20 9l25 27l14 18q1 1 2.5 1.5t2.5 2.5q1 -2 1 -6l-3 -16l-12 -68l-1 -9l1 -9q0 -7 6 -7q5 -1 15 -1h3z" />
    <glyph glyph-name="N" unicode="N" horiz-adv-x="267" 
d="M401 827q0 -3 -1 -4q-36 -68 -53 -103q-12 -22 -25 -52q-4 -10 -14 -30l-41 -87q-13 -28 -41 -84q-18 -36 -31 -52l-6 -8q-12 -15 -32 -12q-4 1 -5.5 2.5t-1.5 5.5q0 12 1 18q5 29 16 103l12 58l9 48q1 2 0.5 4t-0.5 4q-13 -23 -28 -52q-10 -20 -16 -30q-40 -77 -73 -134
q-29 -50 -55 -79q-8 -10 -20 -18q-11 -10 -30 -10q-10 0 -14 1q-9 2 -9 11t3 19q3 23 16 48q40 76 59 114q15 28 43 84l11 22l87 168q25 50 53 86q2 3 16 17q3 3 7 1q2 -2 5.5 -2h4.5h5q14 0 25 -14q4 -4 4 -10t-2 -9q-14 -33 -34 -101l-10 -33l-23 -75q-15 -52 -29 -128
q-5 -21 -10 -53l-2 -13q0 -2 2 -2l2 1l5 10l36 73q28 53 58 100q19 30 63 108l41 71l10 15q2 2 7 4q1 1 5 -1z" />
    <glyph glyph-name="Ntilde" unicode="&#xd1;" horiz-adv-x="267" 
d="M401 827q0 -3 -1 -4q-36 -68 -53 -103q-12 -22 -25 -52q-4 -10 -14 -30l-41 -87q-13 -28 -41 -84q-18 -36 -31 -52l-6 -8q-12 -15 -32 -12q-4 1 -5.5 2.5t-1.5 5.5q0 12 1 18q5 29 16 103l12 58l9 48q1 2 0.5 4t-0.5 4q-13 -23 -28 -52q-10 -20 -16 -30q-40 -77 -73 -134
q-29 -50 -55 -79q-8 -10 -20 -18q-11 -10 -30 -10q-10 0 -14 1q-9 2 -9 11t3 19q3 23 16 48q40 76 59 114q15 28 43 84l11 22l87 168q25 50 53 86q2 3 16 17q3 3 7 1q2 -2 5.5 -2h4.5h5q14 0 25 -14q4 -4 4 -10t-2 -9q-14 -33 -34 -101l-10 -33l-23 -75q-15 -52 -29 -128
q-5 -21 -10 -53l-2 -13q0 -2 2 -2l2 1l5 10l36 73q28 53 58 100q19 30 63 108l41 71l10 15q2 2 7 4q1 1 5 -1zM305 943q-6 -4 -9 -12q-1 -3 0 -6t3 -4q3 0 6 3q14 9 18 11q5 3 10 -2l3 -3l8 -9q8 -6 13 -6l9 -2h4q7 0 12 4q2 1 4 3t6 4l3 4q3 3 3 9q0 2 -1 2q-2 0 -5.5 0.5
t-6.5 -1.5l-12 -5q-6 -3 -9 -3t-10 7l-8 7q-6 5 -13 6t-9 1q-12 -2 -19 -8z" />
    <glyph glyph-name="O" unicode="O" horiz-adv-x="295" 
d="M377.5 852q14.5 -18 15.5 -35q0 -32 -6 -52q-16 -60 -49 -127q-10 -21 -32 -54l-16 -27l-76 -104q59 17 104 40q6 2 7 2q10 0 10 -11q0 -10 -8 -14q-64 -33 -133 -44l-7 -8q-29 -40 -70 -81l-3.5 -3.5l-2.5 -2.5q-13 -13 -29 -18t-37 -4q-7 1 -19 1q-10 1 -15 4.5
t-8 13.5q-3 11 -3 20t1 14l6 31q4 20 5 30l2 6q2 5 3 9.5t1 6.5l-6 12q-9 20 -9 40q0 9 2 23q15 116 93 210q64 75 138 121q31 17 45 21q17 6 34 6q10 0 32 -4q16 -4 30.5 -22zM350 801l-2 17q-1 11 -9 22q-8 9 -18 4l-12 -6q-26 -15 -61 -46q-56 -49 -102 -119
q-31 -48 -49 -90l-3 -8q0 -2 -3 -13t-2 -12q2 4 9.5 17t18 26.5t19.5 17.5q3 1 8 4.5t12 0.5q3 -2 12 0q20 3 33 -16l7 -9q4 -5 2 -10q-3 -11 -9 -20l-38 -61l-21 -35q-1 -1 -0.5 -3t-0.5 -3q2 0 5 -1t8 -1q7 0 10 4q43 56 74 99t52 84l11 22q21 40 33 69q15 39 16 66z
M283 541q0 1 0.5 1h0.5zM127 424q-2 1 -6.5 1.5t-6.5 0.5q-6 0 -9 -8t-4 -9q-1 -2 -2 -5t-1 -6q0 -4 2 -4t7 5l2.5 2.5l2.5 2.5q16 16 15 20z" />
    <glyph glyph-name="Oacute" unicode="&#xd3;" horiz-adv-x="295" 
d="M377.5 852q14.5 -18 15.5 -35q0 -32 -6 -52q-16 -60 -49 -127q-10 -21 -32 -54l-16 -27l-76 -104q59 17 104 40q6 2 7 2q10 0 10 -11q0 -10 -8 -14q-64 -33 -133 -44l-7 -8q-29 -40 -70 -81l-3.5 -3.5l-2.5 -2.5q-13 -13 -29 -18t-37 -4q-7 1 -19 1q-10 1 -15 4.5
t-8 13.5q-3 11 -3 20t1 14l6 31q4 20 5 30l2 6q2 5 3 9.5t1 6.5l-6 12q-9 20 -9 40q0 9 2 23q15 116 93 210q64 75 138 121q31 17 45 21q17 6 34 6q10 0 32 -4q16 -4 30.5 -22zM350 801l-2 17q-1 11 -9 22q-8 9 -18 4l-12 -6q-26 -15 -61 -46q-56 -49 -102 -119
q-31 -48 -49 -90l-3 -8q0 -2 -3 -13t-2 -12q2 4 9.5 17t18 26.5t19.5 17.5q3 1 8 4.5t12 0.5q3 -2 12 0q20 3 33 -16l7 -9q4 -5 2 -10q-3 -11 -9 -20l-38 -61l-21 -35q-1 -1 -0.5 -3t-0.5 -3q2 0 5 -1t8 -1q7 0 10 4q43 56 74 99t52 84l11 22q21 40 33 69q15 39 16 66z
M283 541q0 1 0.5 1h0.5zM127 424q-2 1 -6.5 1.5t-6.5 0.5q-6 0 -9 -8t-4 -9q-1 -2 -2 -5t-1 -6q0 -4 2 -4t7 5l2.5 2.5l2.5 2.5q16 16 15 20zM382 980q-10 0 -16 -10q-3 -4 -21 -35q0 -1 -0.5 -2.5t0.5 -2.5q3 -7 12 -7q5 0 8 4q18 24 26 36q2 2 4 12q0 4 -4 4q-2 1 -5 1h-4
z" />
    <glyph glyph-name="Ocircumflex" unicode="&#xd4;" horiz-adv-x="295" 
d="M377.5 852q14.5 -18 15.5 -35q0 -32 -6 -52q-16 -60 -49 -127q-10 -21 -32 -54l-16 -27l-76 -104q59 17 104 40q6 2 7 2q10 0 10 -11q0 -10 -8 -14q-64 -33 -133 -44l-7 -8q-29 -40 -70 -81l-3.5 -3.5l-2.5 -2.5q-13 -13 -29 -18t-37 -4q-7 1 -19 1q-10 1 -15 4.5
t-8 13.5q-3 11 -3 20t1 14l6 31q4 20 5 30l2 6q2 5 3 9.5t1 6.5l-6 12q-9 20 -9 40q0 9 2 23q15 116 93 210q64 75 138 121q31 17 45 21q17 6 34 6q10 0 32 -4q16 -4 30.5 -22zM350 801l-2 17q-1 11 -9 22q-8 9 -18 4l-12 -6q-26 -15 -61 -46q-56 -49 -102 -119
q-31 -48 -49 -90l-3 -8q0 -2 -3 -13t-2 -12q2 4 9.5 17t18 26.5t19.5 17.5q3 1 8 4.5t12 0.5q3 -2 12 0q20 3 33 -16l7 -9q4 -5 2 -10q-3 -11 -9 -20l-38 -61l-21 -35q-1 -1 -0.5 -3t-0.5 -3q2 0 5 -1t8 -1q7 0 10 4q43 56 74 99t52 84l11 22q21 40 33 69q15 39 16 66z
M283 541q0 1 0.5 1h0.5zM127 424q-2 1 -6.5 1.5t-6.5 0.5q-6 0 -9 -8t-4 -9q-1 -2 -2 -5t-1 -6q0 -4 2 -4t7 5l2.5 2.5l2.5 2.5q16 16 15 20zM394 970q0 8 -3 14q-2 5 -6 6q-8 2 -12 2q-10 0 -18 -8l-33 -36l-4 -7q-1 -3 1 -5t4 -2q2 1 6 2.5t6 3.5l22 18l9 8q1 2 4 -1l2 -9
l5 -16q2 -6 7 -9q4 -2 5 -2q3 0 5 2.5t2 6.5l-2 19v13z" />
    <glyph glyph-name="Odieresis" unicode="&#xd6;" horiz-adv-x="295" 
d="M377.5 852q14.5 -18 15.5 -35q0 -32 -6 -52q-16 -60 -49 -127q-10 -21 -32 -54l-16 -27l-76 -104q59 17 104 40q6 2 7 2q10 0 10 -11q0 -10 -8 -14q-64 -33 -133 -44l-7 -8q-29 -40 -70 -81l-3.5 -3.5l-2.5 -2.5q-13 -13 -29 -18t-37 -4q-7 1 -19 1q-10 1 -15 4.5
t-8 13.5q-3 11 -3 20t1 14l6 31q4 20 5 30l2 6q2 5 3 9.5t1 6.5l-6 12q-9 20 -9 40q0 9 2 23q15 116 93 210q64 75 138 121q31 17 45 21q17 6 34 6q10 0 32 -4q16 -4 30.5 -22zM350 801l-2 17q-1 11 -9 22q-8 9 -18 4l-12 -6q-26 -15 -61 -46q-56 -49 -102 -119
q-31 -48 -49 -90l-3 -8q0 -2 -3 -13t-2 -12q2 4 9.5 17t18 26.5t19.5 17.5q3 1 8 4.5t12 0.5q3 -2 12 0q20 3 33 -16l7 -9q4 -5 2 -10q-3 -11 -9 -20l-38 -61l-21 -35q-1 -1 -0.5 -3t-0.5 -3q2 0 5 -1t8 -1q7 0 10 4q43 56 74 99t52 84l11 22q21 40 33 69q15 39 16 66z
M283 541q0 1 0.5 1h0.5zM127 424q-2 1 -6.5 1.5t-6.5 0.5q-6 0 -9 -8t-4 -9q-1 -2 -2 -5t-1 -6q0 -4 2 -4t7 5l2.5 2.5l2.5 2.5q16 16 15 20zM352 936h3q11 0 15 12l2 10v4q0 5 -2 7t-8 3q-7 1 -21 1q-15 0 -21 -11q-5 -6 0 -11q10 -18 27 -15h5zM412 912q2 0 4.5 -0.5
t4.5 0.5q2 3 4 9t2 9q0 6 -6 10q-2 12 -19 12l-5 1q-11 0 -19 -4q-5 -2 -6.5 -6t1.5 -8q8 -13 15 -19t20 -3q1 -1 4 -1z" />
    <glyph glyph-name="Ograve" unicode="&#xd2;" horiz-adv-x="295" 
d="M377.5 852q14.5 -18 15.5 -35q0 -32 -6 -52q-16 -60 -49 -127q-10 -21 -32 -54l-16 -27l-76 -104q59 17 104 40q6 2 7 2q10 0 10 -11q0 -10 -8 -14q-64 -33 -133 -44l-7 -8q-29 -40 -70 -81l-3.5 -3.5l-2.5 -2.5q-13 -13 -29 -18t-37 -4q-7 1 -19 1q-10 1 -15 4.5
t-8 13.5q-3 11 -3 20t1 14l6 31q4 20 5 30l2 6q2 5 3 9.5t1 6.5l-6 12q-9 20 -9 40q0 9 2 23q15 116 93 210q64 75 138 121q31 17 45 21q17 6 34 6q10 0 32 -4q16 -4 30.5 -22zM350 801l-2 17q-1 11 -9 22q-8 9 -18 4l-12 -6q-26 -15 -61 -46q-56 -49 -102 -119
q-31 -48 -49 -90l-3 -8q0 -2 -3 -13t-2 -12q2 4 9.5 17t18 26.5t19.5 17.5q3 1 8 4.5t12 0.5q3 -2 12 0q20 3 33 -16l7 -9q4 -5 2 -10q-3 -11 -9 -20l-38 -61l-21 -35q-1 -1 -0.5 -3t-0.5 -3q2 0 5 -1t8 -1q7 0 10 4q43 56 74 99t52 84l11 22q21 40 33 69q15 39 16 66z
M283 541q0 1 0.5 1h0.5zM127 424q-2 1 -6.5 1.5t-6.5 0.5q-6 0 -9 -8t-4 -9q-1 -2 -2 -5t-1 -6q0 -4 2 -4t7 5l2.5 2.5l2.5 2.5q16 16 15 20zM340 974q-4 0 -5 -2t1 -5q2 -4 23 -35q1 -2 5 -4q3 -2 6 -1.5t4 1.5q2 2 2.5 4t-0.5 4l-8 23q-6 17 -23 15h-5z" />
    <glyph glyph-name="Oslash" unicode="&#xd8;" horiz-adv-x="295" 
d="M384 841.5q7 -11.5 7 -22.5q0 -32 -6 -52q-16 -60 -49 -127q-10 -21 -32 -54l-16 -27l-76 -104q59 17 104 40q6 2 7 2q10 0 10 -11q0 -10 -8 -14q-64 -33 -133 -44l-7 -8q-29 -40 -70 -81l-3.5 -3.5l-2.5 -2.5q-10 -11 -23 -16l-3 -5l-10 -19q-3 -6 -20 -38
q-3 -6 -9.5 -9.5t-14.5 -3.5t-15 5q-13 11 -9 23l15 39l1 3q-8 1 -12.5 5t-7.5 13q-3 11 -3 20t1 14l6 31q4 20 5 30l2 6q2 5 3 9.5t1 6.5l-6 12q-9 20 -9 40q0 9 2 23q15 116 93 210q64 75 138 121q31 17 45 21q15 5 26 5l29 35q11 12 18 17t18 3h5q9 -1 12 -4.5t1 -11.5
q-7 -25 -14 -40q-4 -10 -7 -15q10 -10 17 -21.5zM348 803l-2 16q-5 -11 -17 -33l-60 -112q-43 -78 -50 -92q-42 -82 -62 -123q4 2 5 4q43 56 74 99t52 84l11 22q21 40 33 69q15 39 16 66zM89 564q-3 -11 -2 -12q2 4 9.5 17t18 26.5t19.5 17.5q3 1 8 4t12 1q22 52 34 77
q20 43 50 91q-53 -48 -94 -111q-31 -48 -49 -90l-3 -8q0 -2 -3 -13zM281 543q0 1 0.5 1h0.5z" />
    <glyph glyph-name="Otilde" unicode="&#xd5;" horiz-adv-x="295" 
d="M377.5 852q14.5 -18 15.5 -35q0 -32 -6 -52q-16 -60 -49 -127q-10 -21 -32 -54l-16 -27l-76 -104q59 17 104 40q6 2 7 2q10 0 10 -11q0 -10 -8 -14q-64 -33 -133 -44l-7 -8q-29 -40 -70 -81l-3.5 -3.5l-2.5 -2.5q-13 -13 -29 -18t-37 -4q-7 1 -19 1q-10 1 -15 4.5
t-8 13.5q-3 11 -3 20t1 14l6 31q4 20 5 30l2 6q2 5 3 9.5t1 6.5l-6 12q-9 20 -9 40q0 9 2 23q15 116 93 210q64 75 138 121q31 17 45 21q17 6 34 6q10 0 32 -4q16 -4 30.5 -22zM350 801l-2 17q-1 11 -9 22q-8 9 -18 4l-12 -6q-26 -15 -61 -46q-56 -49 -102 -119
q-31 -48 -49 -90l-3 -8q0 -2 -3 -13t-2 -12q2 4 9.5 17t18 26.5t19.5 17.5q3 1 8 4.5t12 0.5q3 -2 12 0q20 3 33 -16l7 -9q4 -5 2 -10q-3 -11 -9 -20l-38 -61l-21 -35q-1 -1 -0.5 -3t-0.5 -3q2 0 5 -1t8 -1q7 0 10 4q43 56 74 99t52 84l11 22q21 40 33 69q15 39 16 66z
M283 541q0 1 0.5 1h0.5zM127 424q-2 1 -6.5 1.5t-6.5 0.5q-6 0 -9 -8t-4 -9q-1 -2 -2 -5t-1 -6q0 -4 2 -4t7 5l2.5 2.5l2.5 2.5q16 16 15 20zM323 961q-6 -4 -9 -12q-1 -3 0 -6t3 -4q3 0 6 3q14 9 18 11q5 3 10 -2l3 -3l8 -9q8 -6 13 -6l9 -2h4q7 0 12 4q2 1 4 3t6 4l3 4
q3 3 3 9q0 2 -1 2q-2 0 -5.5 0.5t-6.5 -1.5l-12 -5q-6 -3 -9 -3t-10 7l-8 7q-6 5 -13 6t-9 1q-12 -2 -19 -8z" />
    <glyph glyph-name="OE" unicode="&#x152;" horiz-adv-x="480" 
d="M657.5 890q-0.5 -1 -1.5 -1l-10 -3q-28 -6 -46 -8q-8 -1 -34 -4t-48 -3q-17 0 -25 1q-5 0 -7 -1.5t-4 -6.5q-5 -21 -10 -34q-15 -46 -44 -106q-16 -30 -52 -90l-8 -14q-1 -3 3 -3q5 -2 10 0l87 7h17q7 0 12 -6q5 -7 -2 -8q-36 -8 -41 -9q-14 -3 -31.5 -8t-26.5 -7
q-29 -7 -49 -11q-9 -2 -13 -8l-74 -109q-5 -8 -9.5 -15.5t-7.5 -13.5q-2 -2 -2 -3q-4 -12 -4 -14q0 -6 15 -7q36 -2 53 -4q39 1 78 6q6 1 17 1h2q8 0 15 -10q1 -2 -2 -4l-14 -4q-40 -8 -60 -11l-41 -6q-9 -1 -28 -1q-32 0 -57 4q-13 2 -21 6q-23 12 -23 40q0 16 5 34
q3 11 8 26h-2l-7 -8q-29 -40 -70 -81l-3.5 -3.5l-2.5 -2.5q-13 -13 -29 -18t-37 -4q-7 1 -19 1q-10 1 -15 4.5t-8 13.5q-3 11 -3 20t1 14q1 8 5 31l6 30l2 6q2 5 3 9.5t1 6.5l-6 12q-9 20 -9 40q0 9 2 23q15 116 93 210q64 75 138 121q31 17 45 21q17 6 34 6q10 0 32 -4
q16 -4 30.5 -22t15.5 -35q0 -32 -6 -52l-6 -21l13 26q6 13 20 39q15 31 27 48q4 7 9 10q2 2 4 3t4 -3h2t3 1q3 1 8 1q13 0 19 -9q5 -3 9 -2q23 3 44 3q23 0 35 -1l35 -1q8 0 14.5 -1t13.5 -1q15 -1 24 -14q1 -1 2 -2.5t2 -4.5q1 -1 0.5 -2zM338 857l-2 17q-1 11 -9 22
q-8 9 -18 4l-12 -6q-26 -15 -61 -46q-56 -49 -102 -119q-31 -48 -49 -90l-3 -8q0 -2 -3 -13t-2 -12q2 4 9.5 17t18 26.5t19.5 17.5q3 1 8 4.5t12 0.5q3 -2 12 0q20 3 33 -16l7 -9q4 -5 2 -10q-3 -11 -9 -20l-38 -61l-21 -35q-1 -1 -0.5 -3t-0.5 -3q2 0 5 -1t8 -1q7 0 10 4
q43 56 74 99t52 84l11 22q21 40 33 69q15 39 16 66zM115 480q-2 1 -6.5 1.5t-6.5 0.5q-6 0 -9 -8t-4 -9q-1 -2 -2 -5t-1 -6q0 -4 2 -4t7 5l2.5 2.5l2.5 2.5q16 16 15 20z" />
    <glyph glyph-name="P" unicode="P" horiz-adv-x="128" 
d="M345 865q-1 16 -14.5 28t-29.5 12q-19 0 -29 -3l-24 -9q-5 -1 -5 4q1 5 1 16q-1 15 -17 13q-9 0 -13 -7l-3 -5l-33 -57q-5 -11 -15 -22q-11 -13 -20 -26q-7 -10 -8 -20q-2 -7 2 -9q3 -2 1 -8q-10 -23 -13 -28q-14 -36 -44 -106q-15 -37 -19 -50q-4 -15 -14 -43l-18 -46
q-2 -6 -30 -65.5t-28 -65.5t2.5 -11t6.5 -5t8 1t7 1h3q5 0 13 2q5 2 11 11l45 102l19 43q18 34 36 62q12 22 14 26t10 22q1 4 5 1q9 -6 20 -3q6 1 18 1h5q8 0 14 3l15 5q15 4 27 15q13 13 29 36q27 41 44 81q16 33 20 66q1 4 2 10t1 13q0 6 -1 9zM191 687q0 7 2 21
q2 9 6.5 29t9.5 35q5 16 10 29q15 35 19 65q2 9 8 10l31 14q6 2 11 2h3q16 0 21 -17q2 -8 2 -11l-1 -8q-3 -13 -9 -27q-12 -30 -34 -65q-29 -49 -62 -83l-11 -11q-1 -1 -2.5 -0.5t-1.5 1.5q-1 3 -1 7q-1 3 -1 9z" />
    <glyph glyph-name="Thorn" unicode="&#xde;" horiz-adv-x="600" 
 />
    <glyph glyph-name="Q" unicode="Q" horiz-adv-x="360" 
d="M408.5 774.5q0.5 6.5 -0.5 11.5q-2 37 -13 59q-24 55 -81 65q-16 2 -23 2q-22 0 -42 -7q-51 -15 -97 -58q-49 -44 -90 -119q-29 -53 -43 -104q-18 -56 -19 -108q0 -45 11 -74q17 -40 49 -50q12 -3 19 -14q15 -20 36 -23q17 -3 31 -3q13 0 25 3q9 2 27 8q6 2 8 1.5t4 -5.5
l24 -80l5 -13q2 -7 9 -7q4 -1 8.5 -2t11.5 -1q9 0 15 3q4 1 6 7q1 3 1 9q0 13 -2 39l-1 22q-2 43 -1 64q1 4 1 12t-1 12q-2 10 -2 11q0 4 3.5 8t5.5 8l3 3q72 96 98 203q14 54 14 107q0 4 0.5 10.5zM62 418q1 -2 1 -8l-1 -1t-2 -1l-10 9q-12 13 -21 38q-7 22 -7 48
q0 13 1 19q1 32 14 82q21 71 51 122q46 81 106 127q38 28 76 39q12 3 23 3q23 0 42.5 -12.5t29.5 -34.5q12 -30 12 -63q1 -54 -17 -117q-17 -58 -56 -128l-19 -30q-2 -4 -5 -1l-6 8l-6 8q-12 18 -32 16q-10 -2 -13 -2q-6 -2 -4 3q-2 0 -4 0.5t-4 -0.5q-10 -5 -13 -15
q-4 -10 -7 -21q-4 -13 -5 -23q0 -11 -9 -17q-19 -19 -38 -35l-7 -3q0 1 -0.5 3t0.5 5q2 29 15 72q25 82 69 174q21 45 61 110q16 29 19 34l2 4t1 5q0 5 -6 9q-1 1 -4 7q-11 11 -22 10q-5 0 -17 2h-5q-9 0 -16 -4q-18 -14 -26 -22q-18 -18 -40 -51q-66 -99 -93 -216
q-13 -59 -13 -99q-1 -17 5 -53zM139 385q-2 1 -3 2q-2 4 -2 8q-1 4 3 6q20 11 42 28q3 3 5 -3q1 -4 2 -7.5t2 -7.5l1 -4q0 -5 -5 -8l-31 -15l-11 -2q-1 2 -3 3z" />
    <glyph glyph-name="R" unicode="R" horiz-adv-x="261" 
d="M297 503q3 0 5 -2.5t2 -6.5q0 -3 -4 -15l-144 -204l-21 -28q-6 -8 -19.5 -25.5t-24.5 -28.5q-17 -20 -46 -18q-19 0 -19 19q2 35 9 68l22 103q15 65 23 149q2 10 2 15q0 7 -2 10q-13 -18 -14 -20l-57 -94q-14 -23 -44 -69q-6 -8 -11.5 -14.5t-9.5 -11.5q-8 -8 -18 -11
q-12 -3 -24 -5t-23 -1q-13 1 -13 12q0 10 10 25l12 18q57 94 99 175q15 31 26 55l24 50q9 17 29 64q16 39 29 64l12 24q22 48 25 47q5 0 9.5 1.5t9.5 1.5q8 -2 11 -5l14 -13q5 -6 3 -15q-2 -32 -5 -48q-7 -45 -26 -90l-7 -18q-1 -1 -0.5 -2l0.5 -1q1 -1 3 -1l2 1
q30 29 45.5 45.5t29.5 37.5q13 23 20 45q5 15 5 28q0 12 -4 21q-11 38 -56 48q-7 2 -22 2q-22 0 -48 -8q-47 -16 -102 -49q-80 -50 -129 -112q-24 -29 -37 -54q-13 -28 -12 -53v-7q-3 -3 -4 -3h-2q-7 0 -10 6q-8 13 -8 32q0 31 20 69q32 55 84 98q80 64 164 90q40 14 81 14
q18 0 34 -3q43 -7 69 -33q27 -27 27 -67q-1 -35 -19 -72q-24 -47 -75 -98q-1 0 -3 -2q-3 -3 -12 -10.5t-12 -10.5q2 -7 2.5 -18.5t0.5 -16.5v-22q0 -6 0.5 -16t-0.5 -24q-5 -74 -15 -127q-5 -36 -6 -40q-5 -20 -5 -30q0 -6 2 -6q3 0 8 7t7 12l26 36q69 92 93 126q9 10 14 10
zM163 331h1v0l-1 -1v1z" />
    <glyph glyph-name="S" unicode="S" horiz-adv-x="214" 
d="M256.5 486.5q-6.5 -7.5 -22.5 -13.5l-22 -9q-36 -18 -54 -26q-7 -3 -7 -10l-5 -29q-11 -67 -35 -123q-10 -24 -31 -47q-22 -22 -34 -32q-21 -18 -47 -27q-12 -4 -24 -6q-18 -2 -27 -2q-20 0 -36 4q-23 5 -36 15q-25 19 -25 47q0 37 27 69q21 27 57 53q26 18 82 50
q17 10 53 28q9 5 9 14q6 48 8 76q6 80 8 115q2 26 4 78q4 65 12 97q6 30 17 54q13 29 36 46q20 13 38 13q9 0 18 -3l4 -1q36 -4 63 -40q6 -6 14 -20q14 -20 14 -44q0 -13 -5 -30q-11 -33 -37 -64q-22 -27 -52 -41l-11 -3q-3 0 -4 2t0 5q10 15 11 17q20 33 23 38q14 23 22 55
q3 12 3 22q0 39 -36 67q-7 3 -11 0q-16 -12 -21 -21q-14 -20 -19 -47q-5 -33 -7 -75l-4 -103q-3 -67 -11 -151v-5q-1 -5 0.5 -5.5t5.5 0.5q14 6 34.5 13t33.5 11q7 2 14 2q4 0 8 -1.5t7 -2.5q4 -2 -2.5 -9.5zM69 386q0 3 -1 4h-1t-2 -1q-53 -27 -94 -56q-33 -22 -53 -44
q-11 -11 -21 -29q-9 -22 -8 -38q2 -12 6 -16q15 -17 34 -13q22 4 40 18q15 12 29 26q37 34 55 84q9 29 15 58l1 5v2z" />
    <glyph glyph-name="T" unicode="T" horiz-adv-x="138" 
d="M-23 772q22 3 77 10q74 10 111 16q97 16 163 33l80 20q28 7 46 13q5 1 8 3t6 3q4 3 1 8q-3 2 -7 4q-12 0 -18 -2q-24 -7 -32 -8q-40 -8 -61 -11q-27 -4 -55 -6l-35 -2q-25 -2 -80 -12l-78 -14l-35 -5q-47 -7 -65 -10q-3 0 -40 -9l-19 -8q-9 -5 -9 -20l0.5 -1t1.5 -1
q16 -2 24 -2zM7 314q5 7 18 23l11 12q10 7 19 24l21 44l37 78q22 44 39 85l18 41l25 59q8 16 16 40l6 24q3 17 -16 31q-6 5 -13 3q-6 -2 -10 -2h-2q-2 4 -6 0q-10 -12 -15 -23q-6 -11 -16 -35q-22 -46 -32 -69q-7 -15 -34 -79q-12 -26 -38 -78l-48 -101q-7 -13 -8 -26
q0 -7 -4 -17l-13 -28q-3 -6 -3 -17q0 -1 1 -2t2 -1l20 1q16 2 25 13z" />
    <glyph glyph-name="U" unicode="U" 
d="M352 857q0 -18 -6 -35q-20 -75 -52 -157q-18 -48 -56 -142q-27 -62 -65 -107q-23 -25 -40 -35q-12 -9 -26 -12q-18 -5 -35 -5q-9 0 -14 1h-13q-22 1 -34 22q-7 12 -8 24q-1 8 -2 19.5t-1 17.5q3 43 20 109q19 67 47 134l41 94q25 53 53 92q7 9 13 16t11 13q5 5 11 8t12 3
q7 0 11.5 -1t8.5 -2q15 -13 14 -27q-3 -16 -9 -33l-28 -63q-31 -67 -64 -150l-12 -30q-17 -38 -30 -73q-20 -49 -27 -91q-3 -18 -3 -35v-4q0 -7 4 -7q2 0 8 3q26 12 52 42q25 30 57 84q32 60 62 135q30 69 54 141l15 50q1 3 8 17q2 4 4 6q3 3 7 3q6 0 9 -6q3 -9 3 -19z
M212.5 511q0.5 0 0.5 1l-1 -1h0.5z" />
    <glyph glyph-name="Uacute" unicode="&#xda;" 
d="M352 857q0 -18 -6 -35q-20 -75 -52 -157q-18 -48 -56 -142q-27 -62 -65 -107q-23 -25 -40 -35q-12 -9 -26 -12q-18 -5 -35 -5q-9 0 -14 1h-13q-22 1 -34 22q-7 12 -8 24q-1 8 -2 19.5t-1 17.5q3 43 20 109q19 67 47 134l41 94q25 53 53 92q7 9 13 16t11 13q5 5 11 8t12 3
q7 0 11.5 -1t8.5 -2q15 -13 14 -27q-3 -16 -9 -33l-28 -63q-31 -67 -64 -150l-12 -30q-17 -38 -30 -73q-20 -49 -27 -91q-3 -18 -3 -35v-4q0 -7 4 -7q2 0 8 3q26 12 52 42q25 30 57 84q32 60 62 135q30 69 54 141l15 50q1 3 8 17q2 4 4 6q3 3 7 3q6 0 9 -6q3 -9 3 -19z
M212.5 511q0.5 0 0.5 1l-1 -1h0.5zM327 1005q-10 0 -16 -10q-3 -4 -21 -35q0 -1 -0.5 -2.5t0.5 -2.5q3 -7 12 -7q5 0 8 4q18 24 26 36q2 2 4 12q0 4 -4 4q-2 1 -5 1h-4z" />
    <glyph glyph-name="Ucircumflex" unicode="&#xdb;" 
d="M352 857q0 -18 -6 -35q-20 -75 -52 -157q-18 -48 -56 -142q-27 -62 -65 -107q-23 -25 -40 -35q-12 -9 -26 -12q-18 -5 -35 -5q-9 0 -14 1h-13q-22 1 -34 22q-7 12 -8 24q-1 8 -2 19.5t-1 17.5q3 43 20 109q19 67 47 134l41 94q25 53 53 92q7 9 13 16t11 13q5 5 11 8t12 3
q7 0 11.5 -1t8.5 -2q15 -13 14 -27q-3 -16 -9 -33l-28 -63q-31 -67 -64 -150l-12 -30q-17 -38 -30 -73q-20 -49 -27 -91q-3 -18 -3 -35v-4q0 -7 4 -7q2 0 8 3q26 12 52 42q25 30 57 84q32 60 62 135q30 69 54 141l15 50q1 3 8 17q2 4 4 6q3 3 7 3q6 0 9 -6q3 -9 3 -19z
M212.5 511q0.5 0 0.5 1l-1 -1h0.5zM345 998q0 8 -3 14q-2 5 -6 6q-8 2 -12 2q-10 0 -18 -8l-33 -36l-4 -7q-1 -3 1 -5t4 -2q2 1 6 2.5t6 3.5l22 18l9 8q1 2 4 -1l2 -9l5 -16q2 -6 7 -9q4 -2 5 -2q3 0 5 2.5t2 6.5l-2 19v13z" />
    <glyph glyph-name="Udieresis" unicode="&#xdc;" 
d="M352 857q0 -18 -6 -35q-20 -75 -52 -157q-18 -48 -56 -142q-27 -62 -65 -107q-23 -25 -40 -35q-12 -9 -26 -12q-18 -5 -35 -5q-9 0 -14 1h-13q-22 1 -34 22q-7 12 -8 24q-1 8 -2 19.5t-1 17.5q3 43 20 109q19 67 47 134l41 94q25 53 53 92q7 9 13 16t11 13q5 5 11 8t12 3
q7 0 11.5 -1t8.5 -2q15 -13 14 -27q-3 -16 -9 -33l-28 -63q-31 -67 -64 -150l-12 -30q-17 -38 -30 -73q-20 -49 -27 -91q-3 -18 -3 -35v-4q0 -7 4 -7q2 0 8 3q26 12 52 42q25 30 57 84q32 60 62 135q30 69 54 141l15 50q1 3 8 17q2 4 4 6q3 3 7 3q6 0 9 -6q3 -9 3 -19z
M212.5 511q0.5 0 0.5 1l-1 -1h0.5zM289 979h3q11 0 15 12l2 10v4q0 5 -2 7t-8 3q-7 1 -21 1q-15 0 -21 -11q-5 -6 0 -11q10 -18 27 -15h5zM349 955q2 0 4.5 -0.5t4.5 0.5q2 3 4 9t2 9q0 6 -6 10q-2 12 -19 12l-5 1q-11 0 -19 -4q-5 -2 -6.5 -6t1.5 -8q8 -13 15 -19t20 -3
q1 -1 4 -1z" />
    <glyph glyph-name="Ugrave" unicode="&#xd9;" 
d="M352 857q0 -18 -6 -35q-20 -75 -52 -157q-18 -48 -56 -142q-27 -62 -65 -107q-23 -25 -40 -35q-12 -9 -26 -12q-18 -5 -35 -5q-9 0 -14 1h-13q-22 1 -34 22q-7 12 -8 24q-1 8 -2 19.5t-1 17.5q3 43 20 109q19 67 47 134l41 94q25 53 53 92q7 9 13 16t11 13q5 5 11 8t12 3
q7 0 11.5 -1t8.5 -2q15 -13 14 -27q-3 -16 -9 -33l-28 -63q-31 -67 -64 -150l-12 -30q-17 -38 -30 -73q-20 -49 -27 -91q-3 -18 -3 -35v-4q0 -7 4 -7q2 0 8 3q26 12 52 42q25 30 57 84q32 60 62 135q30 69 54 141l15 50q1 3 8 17q2 4 4 6q3 3 7 3q6 0 9 -6q3 -9 3 -19z
M212.5 511q0.5 0 0.5 1l-1 -1h0.5zM280 995q-4 0 -5 -2t1 -5q2 -4 23 -35q1 -2 5 -4q3 -2 6 -1.5t4 1.5q2 2 2.5 4t-0.5 4l-8 23q-6 17 -23 15h-5z" />
    <glyph glyph-name="V" unicode="V" horiz-adv-x="250" 
d="M183 909l-2 4q-12 17 -29 17l-12 -2q-6 -2 -9 3q-3 4 -8 -1q-8 -6 -14 -21q-14 -47 -15 -52l-8 -32l-39 -168q-14 -60 -26 -146l-15 -98q-4 -28 -5 -42l-1 -10q0 -5 2 -13q3 -11 13 -10q3 1 9 1q7 0 12.5 -1t9.5 -2t10 1l17 3q11 0 19 8q22 22 26 27l72 90q35 44 67 101
l71 125l28 49q23 42 43 76l20 38q4 5 -2 11q-4 6 -12 6h-6q-4 0 -6.5 -2t-6.5 -6l-8 -10l-87 -117l-113 -159l-64 -92l-8 -10l-2 -2q-1 1 -1 2v1q0 3 2 9q36 126 49 190l35 164l6 40q0 20 -12 30z" />
    <glyph glyph-name="W" unicode="W" horiz-adv-x="289" 
d="M-18 439q0 -3 -0.5 -6.5t0.5 -7.5q1 -14 17 -14l16 -2q2 0 4 -0.5t5 0.5q28 2 44 16q7 4 14 11l42 41l1.5 2t3.5 1q0 -4 -1 -5q0 -4 -2 -8q-13 -48 -15 -83l-1 -9q0 -5 2 -13q3 -9 11 -9q7 -1 19 -1q31 -2 46 16l6 6q15 16 41 52q20 28 61 98q56 98 82 148q13 24 23 44
l18 36l10 20q10 22 14 34q2 4 2 11q0 12 -13 22q-5 5 -16 3q-2 -1 -7 -8l-2 -4q-13 -34 -44 -90q-39 -72 -73 -130q-20 -35 -42.5 -71.5t-43.5 -65.5q-8 -13 -26 -37l-5 -3l1 5v1l34 104q3 8 7 26v4q0 9 -6 15t-14 6t-11 1q-4 1 -7 -2l-19 -20q-16 -19 -17 -20
q-38 -43 -53 -56q-9 -9 -27 -23l-4 -2v5l3 7q46 122 105 251l56 124q11 24 18 46q3 8 3 13q0 6 -9 16q-1 0 -1 1q-7 5 -14 5q-7 -2 -9 -1t-5 1q-5 0 -8 -5l-10 -10q-25 -31 -48 -66q-49 -83 -87 -171q-45 -105 -63 -201l-8 -48h2z" />
    <glyph glyph-name="Wacute" unicode="&#x1e82;" horiz-adv-x="289" 
d="M-18 439q0 -3 -0.5 -6.5t0.5 -7.5q1 -14 17 -14l16 -2q2 0 4 -0.5t5 0.5q28 2 44 16q7 4 14 11l42 41l1.5 2t3.5 1q0 -4 -1 -5q0 -4 -2 -8q-13 -48 -15 -83l-1 -9q0 -5 2 -13q3 -9 11 -9q7 -1 19 -1q31 -2 46 16l6 6q15 16 41 52q20 28 61 98q56 98 82 148q13 24 23 44
l18 36l10 20q10 22 14 34q2 4 2 11q0 12 -13 22q-5 5 -16 3q-2 -1 -7 -8l-2 -4q-13 -34 -44 -90q-39 -72 -73 -130q-20 -35 -42.5 -71.5t-43.5 -65.5q-8 -13 -26 -37l-5 -3l1 5v1l34 104q3 8 7 26v4q0 9 -6 15t-14 6t-11 1q-4 1 -7 -2l-19 -20q-16 -19 -17 -20
q-38 -43 -53 -56q-9 -9 -27 -23l-4 -2v5l3 7q46 122 105 251l56 124q11 24 18 46q3 8 3 13q0 6 -9 16q-1 0 -1 1q-7 5 -14 5q-7 -2 -9 -1t-5 1q-5 0 -8 -5l-10 -10q-25 -31 -48 -66q-49 -83 -87 -171q-45 -105 -63 -201l-8 -48h2zM372 988q-10 0 -16 -10q-3 -4 -21 -35
q0 -1 -0.5 -2.5t0.5 -2.5q3 -7 12 -7q5 0 8 4q18 24 26 36q2 2 4 12q0 4 -4 4q-2 1 -5 1h-4z" />
    <glyph glyph-name="Wcircumflex" unicode="&#x174;" horiz-adv-x="289" 
d="M-18 439q0 -3 -0.5 -6.5t0.5 -7.5q1 -14 17 -14l16 -2q2 0 4 -0.5t5 0.5q28 2 44 16q7 4 14 11l42 41l1.5 2t3.5 1q0 -4 -1 -5q0 -4 -2 -8q-13 -48 -15 -83l-1 -9q0 -5 2 -13q3 -9 11 -9q7 -1 19 -1q31 -2 46 16l6 6q15 16 41 52q20 28 61 98q56 98 82 148q13 24 23 44
l18 36l10 20q10 22 14 34q2 4 2 11q0 12 -13 22q-5 5 -16 3q-2 -1 -7 -8l-2 -4q-13 -34 -44 -90q-39 -72 -73 -130q-20 -35 -42.5 -71.5t-43.5 -65.5q-8 -13 -26 -37l-5 -3l1 5v1l34 104q3 8 7 26v4q0 9 -6 15t-14 6t-11 1q-4 1 -7 -2l-19 -20q-16 -19 -17 -20
q-38 -43 -53 -56q-9 -9 -27 -23l-4 -2v5l3 7q46 122 105 251l56 124q11 24 18 46q3 8 3 13q0 6 -9 16q-1 0 -1 1q-7 5 -14 5q-7 -2 -9 -1t-5 1q-5 0 -8 -5l-10 -10q-25 -31 -48 -66q-49 -83 -87 -171q-45 -105 -63 -201l-8 -48h2zM391 970q0 8 -3 14q-2 5 -6 6q-8 2 -12 2
q-10 0 -18 -8l-33 -36l-4 -7q-1 -3 1 -5t4 -2q2 1 6 2.5t6 3.5l22 18l9 8q1 2 4 -1l2 -9l5 -16q2 -6 7 -9q4 -2 5 -2q3 0 5 2.5t2 6.5l-2 19v13z" />
    <glyph glyph-name="Wdieresis" unicode="&#x1e84;" horiz-adv-x="289" 
d="M-18 439q0 -3 -0.5 -6.5t0.5 -7.5q1 -14 17 -14l16 -2q2 0 4 -0.5t5 0.5q28 2 44 16q7 4 14 11l42 41l1.5 2t3.5 1q0 -4 -1 -5q0 -4 -2 -8q-13 -48 -15 -83l-1 -9q0 -5 2 -13q3 -9 11 -9q7 -1 19 -1q31 -2 46 16l6 6q15 16 41 52q20 28 61 98q56 98 82 148q13 24 23 44
l18 36l10 20q10 22 14 34q2 4 2 11q0 12 -13 22q-5 5 -16 3q-2 -1 -7 -8l-2 -4q-13 -34 -44 -90q-39 -72 -73 -130q-20 -35 -42.5 -71.5t-43.5 -65.5q-8 -13 -26 -37l-5 -3l1 5v1l34 104q3 8 7 26v4q0 9 -6 15t-14 6t-11 1q-4 1 -7 -2l-19 -20q-16 -19 -17 -20
q-38 -43 -53 -56q-9 -9 -27 -23l-4 -2v5l3 7q46 122 105 251l56 124q11 24 18 46q3 8 3 13q0 6 -9 16q-1 0 -1 1q-7 5 -14 5q-7 -2 -9 -1t-5 1q-5 0 -8 -5l-10 -10q-25 -31 -48 -66q-49 -83 -87 -171q-45 -105 -63 -201l-8 -48h2zM342 949h3q11 0 15 12l2 10v4q0 5 -2 7
t-8 3q-7 1 -21 1q-15 0 -21 -11q-5 -6 0 -11q10 -18 27 -15h5zM402 925q2 0 4.5 -0.5t4.5 0.5q2 3 4 9t2 9q0 6 -6 10q-2 12 -19 12l-5 1q-11 0 -19 -4q-5 -2 -6.5 -6t1.5 -8q8 -13 15 -19t20 -3q1 -1 4 -1z" />
    <glyph glyph-name="Wgrave" unicode="&#x1e80;" horiz-adv-x="289" 
d="M-18 439q0 -3 -0.5 -6.5t0.5 -7.5q1 -14 17 -14l16 -2q2 0 4 -0.5t5 0.5q28 2 44 16q7 4 14 11l42 41l1.5 2t3.5 1q0 -4 -1 -5q0 -4 -2 -8q-13 -48 -15 -83l-1 -9q0 -5 2 -13q3 -9 11 -9q7 -1 19 -1q31 -2 46 16l6 6q15 16 41 52q20 28 61 98q56 98 82 148q13 24 23 44
l18 36l10 20q10 22 14 34q2 4 2 11q0 12 -13 22q-5 5 -16 3q-2 -1 -7 -8l-2 -4q-13 -34 -44 -90q-39 -72 -73 -130q-20 -35 -42.5 -71.5t-43.5 -65.5q-8 -13 -26 -37l-5 -3l1 5v1l34 104q3 8 7 26v4q0 9 -6 15t-14 6t-11 1q-4 1 -7 -2l-19 -20q-16 -19 -17 -20
q-38 -43 -53 -56q-9 -9 -27 -23l-4 -2v5l3 7q46 122 105 251l56 124q11 24 18 46q3 8 3 13q0 6 -9 16q-1 0 -1 1q-7 5 -14 5q-7 -2 -9 -1t-5 1q-5 0 -8 -5l-10 -10q-25 -31 -48 -66q-49 -83 -87 -171q-45 -105 -63 -201l-8 -48h2zM336 980q-4 0 -5 -2t1 -5q2 -4 23 -35
q1 -2 5 -4q3 -2 6 -1.5t4 1.5q2 2 2.5 4t-0.5 4l-8 23q-6 17 -23 15h-5z" />
    <glyph glyph-name="X" unicode="X" horiz-adv-x="371" 
d="M310 400q14 0 17 13q6 14 7 23q12 58 16 83q9 46 17 136l2 22q2 19 8 65q1 8 2 21t4 30v3q0 9 -7 16q-8 6 -14 6q-2 0 -4 -0.5t-5 0.5l-5 1q-7 0 -17 -6q-15 -8 -25 -20q-26 -28 -38 -43q-19 -25 -53 -79q-6 -9 -7 -10q-1 -3 -4 0l-3 7l-33 88l-12 31q-17 46 -27 64
q-1 5 1 7t0 4l-7 6q-8 5 -18.5 6t-12.5 1q-9 0 -15 -8l-2 -4t-1 -5q-6 -24 -6 -35l1 -10q4 -20 7 -30q8 -30 18 -60q25 -73 34 -96l20 -50q2 -6 2 -9q0 -2 -2 -8l-39 -77q-32 -64 -49 -95l-49 -96q-13 -24 -21 -46l-9 -19q-4 -11 -6 -25q-2 -6 0 -14q0 -1 1 -2.5t3 -1.5
q4 -1 11 -1q10 0 16 5q10 7 21 23l59 106q48 82 98 157q1 1 4 6.5t8 7.5l11 -13q27 -38 55 -60q18 -16 40 -15h8zM341 576l-15 -91q-6 -32 -10 -47q-2 -6 -4.5 -10.5t-4.5 -7.5t-4 -1q-6 8 -7 12q-14 30 -20 45q-10 25 -28 75q-2 4 -2 7q0 4 3 8q50 81 102 178q1 1 2.5 6
t6.5 7v-15l-1 -14q-1 -58 -18 -152z" />
    <glyph glyph-name="Y" unicode="Y" horiz-adv-x="150" 
d="M148 786l-6 84q-3 34 -22 55q-11 11 -23 11q-6 0 -9 -1l-4 -1q-1 0 -2.5 0.5t-1.5 1.5q-3 5 -8 0q-5 -4 -7 -13q-4 -20 -5 -31q-2 -10 -2 -31q0 -25 1 -38q2 -24 4 -38q11 -69 27 -138q1 -3 1 -8q0 -8 -4 -15q-16 -31 -31 -74q-30 -84 -46 -126q-2 -7 -7 -34
q-1 -6 -2.5 -17t-0.5 -16q1 -4 7 -7.5t10 -3.5q5 -1 16 -1q20 0 31.5 16.5t19.5 36.5q2 7 17 49l12 32q4 12 10 28t14 36q10 26 32 76l16 38q5 11 15 27l26 37q13 19 38 55.5t42 63.5l11 20q2 5 0 8q-6 11 -17 12q-24 2 -39 -12q-13 -10 -14 -11q-38 -30 -68 -68l-27 -39
l-2 -2q-2 2 -2 3q-1 12 -1 35h1z" />
    <glyph glyph-name="Yacute" unicode="&#xdd;" horiz-adv-x="150" 
d="M148 786l-6 84q-3 34 -22 55q-11 11 -23 11q-6 0 -9 -1l-4 -1q-1 0 -2.5 0.5t-1.5 1.5q-3 5 -8 0q-5 -4 -7 -13q-4 -20 -5 -31q-2 -10 -2 -31q0 -25 1 -38q2 -24 4 -38q11 -69 27 -138q1 -3 1 -8q0 -8 -4 -15q-16 -31 -31 -74q-30 -84 -46 -126q-2 -7 -7 -34
q-1 -6 -2.5 -17t-0.5 -16q1 -4 7 -7.5t10 -3.5q5 -1 16 -1q20 0 31.5 16.5t19.5 36.5q2 7 17 49l12 32q4 12 10 28t14 36q10 26 32 76l16 38q5 11 15 27l26 37q13 19 38 55.5t42 63.5l11 20q2 5 0 8q-6 11 -17 12q-24 2 -39 -12q-13 -10 -14 -11q-38 -30 -68 -68l-27 -39
l-2 -2q-2 2 -2 3q-1 12 -1 35h1zM229 1000q-10 0 -16 -10q-3 -4 -21 -35q0 -1 -0.5 -2.5t0.5 -2.5q3 -7 12 -7q5 0 8 4q18 24 26 36q2 2 4 12q0 4 -4 4q-2 1 -5 1h-4z" />
    <glyph glyph-name="Ycircumflex" unicode="&#x176;" horiz-adv-x="150" 
d="M148 786l-6 84q-3 34 -22 55q-11 11 -23 11q-6 0 -9 -1l-4 -1q-1 0 -2.5 0.5t-1.5 1.5q-3 5 -8 0q-5 -4 -7 -13q-4 -20 -5 -31q-2 -10 -2 -31q0 -25 1 -38q2 -24 4 -38q11 -69 27 -138q1 -3 1 -8q0 -8 -4 -15q-16 -31 -31 -74q-30 -84 -46 -126q-2 -7 -7 -34
q-1 -6 -2.5 -17t-0.5 -16q1 -4 7 -7.5t10 -3.5q5 -1 16 -1q20 0 31.5 16.5t19.5 36.5q2 7 17 49l12 32q4 12 10 28t14 36q10 26 32 76l16 38q5 11 15 27l26 37q13 19 38 55.5t42 63.5l11 20q2 5 0 8q-6 11 -17 12q-24 2 -39 -12q-13 -10 -14 -11q-38 -30 -68 -68l-27 -39
l-2 -2q-2 2 -2 3q-1 12 -1 35h1zM251 981q0 8 -3 14q-2 5 -6 6q-8 2 -12 2q-10 0 -18 -8l-33 -36l-4 -7q-1 -3 1 -5t4 -2q2 1 6 2.5t6 3.5l22 18l9 8q1 2 4 -1l2 -9l5 -16q2 -6 7 -9q4 -2 5 -2q3 0 5 2.5t2 6.5l-2 19v13z" />
    <glyph glyph-name="Ydieresis" unicode="&#x178;" horiz-adv-x="150" 
d="M148 786l-6 84q-3 34 -22 55q-11 11 -23 11q-6 0 -9 -1l-4 -1q-1 0 -2.5 0.5t-1.5 1.5q-3 5 -8 0q-5 -4 -7 -13q-4 -20 -5 -31q-2 -10 -2 -31q0 -25 1 -38q2 -24 4 -38q11 -69 27 -138q1 -3 1 -8q0 -8 -4 -15q-16 -31 -31 -74q-30 -84 -46 -126q-2 -7 -7 -34
q-1 -6 -2.5 -17t-0.5 -16q1 -4 7 -7.5t10 -3.5q5 -1 16 -1q20 0 31.5 16.5t19.5 36.5q2 7 17 49l12 32q4 12 10 28t14 36q10 26 32 76l16 38q5 11 15 27l26 37q13 19 38 55.5t42 63.5l11 20q2 5 0 8q-6 11 -17 12q-24 2 -39 -12q-13 -10 -14 -11q-38 -30 -68 -68l-27 -39
l-2 -2q-2 2 -2 3q-1 12 -1 35h1zM188 957h3q11 0 15 12l2 10v4q0 5 -2 7t-8 3q-7 1 -21 1q-15 0 -21 -11q-5 -6 0 -11q10 -18 27 -15h5zM248 933q2 0 4.5 -0.5t4.5 0.5q2 3 4 9t2 9q0 6 -6 10q-2 12 -19 12l-5 1q-11 0 -19 -4q-5 -2 -6.5 -6t1.5 -8q8 -13 15 -19t20 -3
q1 -1 4 -1z" />
    <glyph glyph-name="Ygrave" unicode="&#x1ef2;" horiz-adv-x="150" 
d="M148 786l-6 84q-3 34 -22 55q-11 11 -23 11q-6 0 -9 -1l-4 -1q-1 0 -2.5 0.5t-1.5 1.5q-3 5 -8 0q-5 -4 -7 -13q-4 -20 -5 -31q-2 -10 -2 -31q0 -25 1 -38q2 -24 4 -38q11 -69 27 -138q1 -3 1 -8q0 -8 -4 -15q-16 -31 -31 -74q-30 -84 -46 -126q-2 -7 -7 -34
q-1 -6 -2.5 -17t-0.5 -16q1 -4 7 -7.5t10 -3.5q5 -1 16 -1q20 0 31.5 16.5t19.5 36.5q2 7 17 49l12 32q4 12 10 28t14 36q10 26 32 76l16 38q5 11 15 27l26 37q13 19 38 55.5t42 63.5l11 20q2 5 0 8q-6 11 -17 12q-24 2 -39 -12q-13 -10 -14 -11q-38 -30 -68 -68l-27 -39
l-2 -2q-2 2 -2 3q-1 12 -1 35h1zM199 988q-4 0 -5 -2t1 -5q2 -4 23 -35q1 -2 5 -4q3 -2 6 -1.5t4 1.5q2 2 2.5 4t-0.5 4l-8 23q-6 17 -23 15h-5z" />
    <glyph glyph-name="Z" unicode="Z" horiz-adv-x="250" 
d="M205.5 395q35.5 17 47 31t36.5 50q2 2 2 6t-3 7t-8 3q-8 0 -14 -9q-17 -28 -50 -55q-9 -7 -30 -12t-38 -6q-43 0 -64 1l-2 1q-1 1 1 3l3 2q41 31 73 79q37 57 54 95q38 78 55 117q19 40 55 122q4 8 7.5 20.5t6.5 20.5q4 13 2 32q-1 7 -5 14l-9 12q-11 13 -26 13h-5
q-7 0 -11 1h-2q-3 0 -8 -1.5t-8 -2.5q-6 0 -9 -1l-20 -2q-26 -2 -39 -4q-44 -7 -73 -25q-18 -11 -28 -28t-10 -36q0 -11 3 -22q15 -52 60 -80q3 -2 19 -10q2 -2 2 -5q-2 -6 -4 -9q-22 -48 -34 -71q-29 -60 -66 -127l-11 -20q-26 -48 -40 -66q-6 -6 -7 -11q-6 -12 -7 -18
l-1 -6q0 -4 2.5 -5.5t9.5 -3.5h3l100 -9q55 -2 90.5 15zM258 911q-20 -37 -23 -44l-55 -119q-2 -5 -3.5 -7.5t-3.5 -2.5q-3 0 -10 7q-36 30 -45 77q-1 4 -1 12q0 27 21 43q8 8 22 15q39 22 93 25q8 0 5 -6z" />
    <glyph glyph-name="a" unicode="a" horiz-adv-x="215" 
d="M249 508.5q6 1.5 10 -1.5q5 -5 -3 -9t-38.5 -27t-51.5 -46q-7 -8 -11.5 -11t-11.5 -3l-15 2q-7 0 -8 8q0 2 0.5 4.5t-2.5 3.5q-2 1 -7 -4q-12 -8 -40 -12q-4 -1 -10 -0.5t-9 0.5l-18 1h-7q-27 5 -27 30q0 54 43 80q16 9 29 9q16 0 31 -3q25 -6 40 -30q2 -2 2 -8
q0 -11 -9 -14q-5 -3 -10 2l-11 10q-12 11 -17 11q-4 0 -9 -5l-7 -7q-13 -13 -17 -28q-1 -3 -1 -9q0 -7 7 -6q30 7 48 18q8 6 19 2q3 -1 9 -7q1 -1 4 -7q2 -3 6 -1l10 9q33 25 74 46q2 1 8 2.5z" />
    <glyph glyph-name="aacute" unicode="&#xe1;" horiz-adv-x="215" 
d="M249 508.5q6 1.5 10 -1.5q5 -5 -3 -9t-38.5 -27t-51.5 -46q-7 -8 -11.5 -11t-11.5 -3l-15 2q-7 0 -8 8q0 2 0.5 4.5t-2.5 3.5q-2 1 -7 -4q-12 -8 -40 -12q-4 -1 -10 -0.5t-9 0.5l-18 1h-7q-27 5 -27 30q0 54 43 80q16 9 29 9q16 0 31 -3q25 -6 40 -30q2 -2 2 -8
q0 -11 -9 -14q-5 -3 -10 2l-11 10q-12 11 -17 11q-4 0 -9 -5l-7 -7q-13 -13 -17 -28q-1 -3 -1 -9q0 -7 7 -6q30 7 48 18q8 6 19 2q3 -1 9 -7q1 -1 4 -7q2 -3 6 -1l10 9q33 25 74 46q2 1 8 2.5zM141 627q-10 0 -16 -10q-3 -4 -21 -35q0 -1 -0.5 -2.5t0.5 -2.5q3 -7 12 -7
q5 0 8 4q18 24 26 36q2 2 4 12q0 4 -4 4q-2 1 -5 1h-4z" />
    <glyph glyph-name="acircumflex" unicode="&#xe2;" horiz-adv-x="215" 
d="M249 508.5q6 1.5 10 -1.5q5 -5 -3 -9t-38.5 -27t-51.5 -46q-7 -8 -11.5 -11t-11.5 -3l-15 2q-7 0 -8 8q0 2 0.5 4.5t-2.5 3.5q-2 1 -7 -4q-12 -8 -40 -12q-4 -1 -10 -0.5t-9 0.5l-18 1h-7q-27 5 -27 30q0 54 43 80q16 9 29 9q16 0 31 -3q25 -6 40 -30q2 -2 2 -8
q0 -11 -9 -14q-5 -3 -10 2l-11 10q-12 11 -17 11q-4 0 -9 -5l-7 -7q-13 -13 -17 -28q-1 -3 -1 -9q0 -7 7 -6q30 7 48 18q8 6 19 2q3 -1 9 -7q1 -1 4 -7q2 -3 6 -1l10 9q33 25 74 46q2 1 8 2.5zM151 603q0 8 -3 14q-2 5 -6 6q-8 2 -12 2q-10 0 -18 -8l-33 -36l-4 -7
q-1 -3 1 -5t4 -2q2 1 6 2.5t6 3.5l22 18l9 8q1 2 4 -1l2 -9l5 -16q2 -6 7 -9q4 -2 5 -2q3 0 5 2.5t2 6.5l-2 19v13z" />
    <glyph glyph-name="adieresis" unicode="&#xe4;" horiz-adv-x="215" 
d="M249 508.5q6 1.5 10 -1.5q5 -5 -3 -9t-38.5 -27t-51.5 -46q-7 -8 -11.5 -11t-11.5 -3l-15 2q-7 0 -8 8q0 2 0.5 4.5t-2.5 3.5q-2 1 -7 -4q-12 -8 -40 -12q-4 -1 -10 -0.5t-9 0.5l-18 1h-7q-27 5 -27 30q0 54 43 80q16 9 29 9q16 0 31 -3q25 -6 40 -30q2 -2 2 -8
q0 -11 -9 -14q-5 -3 -10 2l-11 10q-12 11 -17 11q-4 0 -9 -5l-7 -7q-13 -13 -17 -28q-1 -3 -1 -9q0 -7 7 -6q30 7 48 18q8 6 19 2q3 -1 9 -7q1 -1 4 -7q2 -3 6 -1l10 9q33 25 74 46q2 1 8 2.5zM84 581h3q11 0 15 12l2 10v4q0 5 -2 7t-8 3q-7 1 -21 1q-15 0 -21 -11
q-5 -6 0 -11q10 -18 27 -15h5zM144 557q2 0 4.5 -0.5t4.5 0.5q2 3 4 9t2 9q0 6 -6 10q-2 12 -19 12l-5 1q-11 0 -19 -4q-5 -2 -6.5 -6t1.5 -8q8 -13 15 -19t20 -3q1 -1 4 -1z" />
    <glyph glyph-name="agrave" unicode="&#xe0;" horiz-adv-x="215" 
d="M249 508.5q6 1.5 10 -1.5q5 -5 -3 -9t-38.5 -27t-51.5 -46q-7 -8 -11.5 -11t-11.5 -3l-15 2q-7 0 -8 8q0 2 0.5 4.5t-2.5 3.5q-2 1 -7 -4q-12 -8 -40 -12q-4 -1 -10 -0.5t-9 0.5l-18 1h-7q-27 5 -27 30q0 54 43 80q16 9 29 9q16 0 31 -3q25 -6 40 -30q2 -2 2 -8
q0 -11 -9 -14q-5 -3 -10 2l-11 10q-12 11 -17 11q-4 0 -9 -5l-7 -7q-13 -13 -17 -28q-1 -3 -1 -9q0 -7 7 -6q30 7 48 18q8 6 19 2q3 -1 9 -7q1 -1 4 -7q2 -3 6 -1l10 9q33 25 74 46q2 1 8 2.5zM85 611q-4 0 -5 -2t1 -5q2 -4 23 -35q1 -2 5 -4q3 -2 6 -1.5t4 1.5q2 2 2.5 4
t-0.5 4l-8 23q-6 17 -23 15h-5z" />
    <glyph glyph-name="aring" unicode="&#xe5;" horiz-adv-x="215" 
d="M249 508.5q6 1.5 10 -1.5q5 -5 -3 -9t-38.5 -27t-51.5 -46q-7 -8 -11.5 -11t-11.5 -3l-15 2q-7 0 -8 8q0 2 0.5 4.5t-2.5 3.5q-2 1 -7 -4q-12 -8 -40 -12q-4 -1 -10 -0.5t-9 0.5l-18 1h-7q-27 5 -27 30q0 54 43 80q16 9 29 9q16 0 31 -3q25 -6 40 -30q2 -2 2 -8
q0 -11 -9 -14q-5 -3 -10 2l-11 10q-12 11 -17 11q-4 0 -9 -5l-7 -7q-13 -13 -17 -28q-1 -3 -1 -9q0 -7 7 -6q30 7 48 18q8 6 19 2q3 -1 9 -7q1 -1 4 -7q2 -3 6 -1l10 9q33 25 74 46q2 1 8 2.5zM155 618q-1 10 -5 13.5t-14 3.5q-5 0 -18 -6t-18 -11q-7 -6 -15 -22
q-2 -6 -2 -9t2 -9q6 -13 18 -17q8 -2 11 -2q22 0 32 18q7 13 9 34v7zM125 582q-2 -5 -9 -8q-2 -1 -4 0t-2 3q-2 5 0 9l14 28q1 2 3.5 4t3.5 3l3 1.5t2 0.5q1 -1 1.5 -2.5t1.5 -2.5q-3 -23 -14 -36z" />
    <glyph glyph-name="atilde" unicode="&#xe3;" horiz-adv-x="215" 
d="M249 508.5q6 1.5 10 -1.5q5 -5 -3 -9t-38.5 -27t-51.5 -46q-7 -8 -11.5 -11t-11.5 -3l-15 2q-7 0 -8 8q0 2 0.5 4.5t-2.5 3.5q-2 1 -7 -4q-12 -8 -40 -12q-4 -1 -10 -0.5t-9 0.5l-18 1h-7q-27 5 -27 30q0 54 43 80q16 9 29 9q16 0 31 -3q25 -6 40 -30q2 -2 2 -8
q0 -11 -9 -14q-5 -3 -10 2l-11 10q-12 11 -17 11q-4 0 -9 -5l-7 -7q-13 -13 -17 -28q-1 -3 -1 -9q0 -7 7 -6q30 7 48 18q8 6 19 2q3 -1 9 -7q1 -1 4 -7q2 -3 6 -1l10 9q33 25 74 46q2 1 8 2.5zM72 593q-6 -4 -9 -12q-1 -3 0 -6t3 -4q3 0 6 3q14 9 18 11q5 3 10 -2l3 -3l8 -9
q8 -6 13 -6l9 -2h4q7 0 12 4q2 1 4 3t6 4l3 4q3 3 3 9q0 2 -1 2q-2 0 -5.5 0.5t-6.5 -1.5l-12 -5q-6 -3 -9 -3t-10 7l-8 7q-6 5 -13 6t-9 1q-12 -2 -19 -8z" />
    <glyph glyph-name="ae" unicode="&#xe6;" horiz-adv-x="295" 
d="M332.5 501.5q1.5 -3.5 1 -7t-0.5 -4.5q-9 -20 -41 -44.5t-55 -36.5q-29 -15 -62 -12l-13 2q-6 0 -14 2l-12 3q-8 3 -13 10t-4 14v8l-2 1q-2 1 -7 -4q-12 -8 -40 -12q-4 -1 -10 -0.5t-9 0.5l-18 1h-7q-27 5 -27 30q0 54 43 80q16 9 29 9q16 0 31 -3q23 -5 38 -27q4 8 7 11
q24 40 88 40q5 0 15 -2q17 -4 15 -26q0 -2 -1 -4t-1 -3q-3 -5 -8.5 -17t-14.5 -18l-18 -12l-19 -14q-7 -12 -8.5 -18t-2.5 -20q-1 -3 0 -4.5t4 -2.5h6q5 0 17 2q24 9 34 15q14 9 34.5 27t26.5 30q5 10 11 10t7.5 -3.5zM218 515.5q-6 -14.5 -9 -20.5q2 0 9 3t15 10.5t12 19.5
q3 6 3 9q0 1 1 4t0 3t-3 0.5t-3 -0.5q-2 0 -5.5 -1.5t-5.5 -2.5q-8 -10 -14 -24.5zM118 472l8 3q2 4 4 10q-2 0 -5 3l-11 10q-12 11 -17 11q-4 0 -9 -5l-7 -7q-13 -13 -17 -28q-1 -3 -1 -9q0 -7 7 -6q30 7 48 18z" />
    <glyph glyph-name="b" unicode="b" horiz-adv-x="212" 
d="M241 504q4 0 6 -1t3 -2q3 -3 3 -4q0 -3 -10 -10l-54 -29q-29 -17 -32 -25q-3 -6 -5 -12t-6 -13q-6 -14 -23 -29q-4 -4 -7 -5q-26 -12 -47 -12q-6 0 -18 2q-17 3 -16 21q0 13 10 22q2 2 12 9t20 10q21 6 33 24l24 33q6 7 10 24q1 3 1 8q-1 9 -4.5 11t-10.5 -1l-15 -9
q-32 -26 -34 -28q-5 -5 -8 -11l-13 -27q-10 -20 -22 -36l-15 -25q-11 -24 -35 -21q-5 0 -7 1q-5 2 -6 6v6t1 8l6 19q2 6 6.5 20t9.5 28q10 31 34 91l32 88q26 62 42 92q29 58 44 81q21 33 46 61q5 7 19 19q7 7 19 7q7 0 10 -1q11 -3 13 -16q1 -5 1 -14q0 -22 -7 -40
q-33 -94 -66 -148q-38 -66 -58 -99l-26 -40q-9 -14 -15 -28l1 -3q1 1 3 1q15 15 31 25q10 6 20 6q16 0 24 -14t8 -31q0 -6 -1 -10l-2 -10q0 -4 4 -4q6 2 33 19l26 14q6 2 8 2zM126 607l1 -1v-1v1l6 6l9 14q49 80 78 150q18 44 22 68q0 2 -1 3l-2 -2q-16 -37 -38 -77
q-37 -69 -70 -150q-4 -9 -5 -11zM126 606v1v-1zM76 412q0 1 -0.5 1h-0.5q-3 -2 -9 -5.5t-9 -6.5q-5 -5 -8 -11q-1 -2 -0.5 -3.5t0.5 -2.5q5 0 6 1l13 17l8 9v1z" />
    <glyph glyph-name="c" unicode="c" horiz-adv-x="170" 
d="M216 495q0 -2 -2 -2q-8 -2 -17.5 -9t-14.5 -10l-50 -36q-44 -30 -98 -28q-5 0 -15 4q-17 6 -19 28v20q3 22 27 52q15 17 43 36l25 14q6 5 14 5.5t11 0.5h2q5 0 9 -4t7 -9q0 -3 -1 -4t-11 -14q-40 -43 -41 -44q-3 -3 -18 -23q-7 -8 -10 -23l-1 -5q0 -8 8 -6q17 0 30 7
l53 30l42 24q5 3 16 5h2q3 0 7 -6q2 -1 2 -3z" />
    <glyph glyph-name="ccedilla" unicode="&#xe7;" horiz-adv-x="170" 
d="M216 495q0 -2 -2 -2q-8 -2 -17.5 -9t-14.5 -10l-50 -36q-43 -30 -94 -28q0 -6 -2 -14q-1 -3 -0.5 -5t4.5 -3q8 0 13 -6q6 -7 6 -16q0 -7 -2 -11q-7 -15 -24 -15h-2q-18 0 -23 19q0 4 3 4q7 0 11 -5q5 -5 9 -5t9 6q7 9 4 17q-2 3 -5 4t-6 0l-8 -6q-4 -2 -7 2q-2 2 0 5
q2 9 8 27l2 3q-3 0 -5 1l-4 2q-17 6 -19 28v20q3 22 27 52q15 17 43 36l25 14q6 5 14 5.5t11 0.5h2q5 0 9 -4t7 -9q0 -3 -1 -4t-11 -14q-40 -43 -41 -44q-3 -3 -18 -23q-7 -8 -10 -23l-1 -5q0 -8 8 -6q17 0 30 7l53 30l42 24q5 3 16 5h2q3 0 7 -6q2 -1 2 -3z" />
    <glyph glyph-name="d" unicode="d" horiz-adv-x="215" 
d="M354 902.5q4 -6.5 4 -12.5q0 -5 -2 -15q-9 -45 -27 -89q-21 -50 -67 -133l-24 -42q-30 -50 -58 -86l-26 -34q-9 -13 -13 -24l-9 -33l-2 -12q0 -1 1.5 -2t2.5 0q3 1 9 5l13 9l75 62l8 6q4 2 6 1q2 0 5 -3q1 -1 1 -2.5t-1 -2.5q-3 -4 -7 -7l-36 -32q-30 -28 -46 -40
q-16 -13 -37 -13l-8 1q-9 0 -13 6q-2 2 -4.5 2t-4.5 -2q-15 -11 -32 -12q-5 -1 -15 -1t-16 1q-14 1 -30 14q-6 5 -6 12l-1 10q0 5 2 13q2 12 4 19q1 3 3.5 9.5t5.5 10.5q25 37 70 63l8 3l5 2l9 1q7 0 13 -3q4 -1 5 3q12 30 14 38q18 48 42 93l17 34q21 44 50 93l21 36
q22 33 45 54q11 8 24 8l12 -1q6 -1 10 -7.5zM331 856q-2 0 -2 -2q-4 -6 -5 -9l-30 -62l-14 -30l-28 -58l-36 -73l-14 -26l-11 -19q-1 -2 -2 -4.5t-2 -4.5l-2 -5l5 6l2 3l12 19q40 68 59 102q37 64 59 131q4 10 6 17.5t3 12.5v2zM110 532v0q-5 -3 -18.5 -17.5t-26.5 -39.5
t-17 -57q-2 -5 6 -5l8 2q15 5 31 19q2 2 3 6t1 5l3 27l4 23z" />
    <glyph glyph-name="eth" unicode="&#xf0;" horiz-adv-x="600" 
 />
    <glyph glyph-name="e" unicode="e" horiz-adv-x="164" 
d="M17 524q-18 -31 -26 -71q-2 -9 -2 -23v-2q0 -6 5 -12.5t12 -9.5l12 -3t14 -2l13 -2q33 -3 62 12q23 12 55 36.5t41 44.5q1 2 1 6.5t-3 6.5q-4 2 -6 2q-6 0 -11 -10q-6 -12 -26.5 -30t-34.5 -27q-10 -6 -34 -15q-13 -3 -23 -2q-3 1 -4 2.5t0 4.5q1 14 2.5 20t8.5 18l19 14
l18 12q9 6 14.5 18t8.5 17q0 1 1 3t1 4v5q0 17 -15 21q-10 2 -15 2q-64 0 -88 -40zM115 530q-4 -12 -12 -19.5t-15 -10.5t-9 -3q3 6 9 20.5t14 24.5q2 1 5.5 2.5t5.5 1.5q1 1 3 0.5t3 -0.5t0 -3t-1 -4q0 -3 -3 -9z" />
    <glyph glyph-name="eacute" unicode="&#xe9;" horiz-adv-x="164" 
d="M17 524q-18 -31 -26 -71q-2 -9 -2 -23v-2q0 -6 5 -12.5t12 -9.5l12 -3t14 -2l13 -2q33 -3 62 12q23 12 55 36.5t41 44.5q1 2 1 6.5t-3 6.5q-4 2 -6 2q-6 0 -11 -10q-6 -12 -26.5 -30t-34.5 -27q-10 -6 -34 -15q-13 -3 -23 -2q-3 1 -4 2.5t0 4.5q1 14 2.5 20t8.5 18l19 14
l18 12q9 6 14.5 18t8.5 17q0 1 1 3t1 4v5q0 17 -15 21q-10 2 -15 2q-64 0 -88 -40zM115 530q-4 -12 -12 -19.5t-15 -10.5t-9 -3q3 6 9 20.5t14 24.5q2 1 5.5 2.5t5.5 1.5q1 1 3 0.5t3 -0.5t0 -3t-1 -4q0 -3 -3 -9zM137 662q-10 0 -16 -10q-3 -4 -21 -35q0 -1 -0.5 -2.5
t0.5 -2.5q3 -7 12 -7q5 0 8 4q18 24 26 36q2 2 4 12q0 4 -4 4q-2 1 -5 1h-4z" />
    <glyph glyph-name="ecircumflex" unicode="&#xea;" horiz-adv-x="164" 
d="M17 524q-18 -31 -26 -71q-2 -9 -2 -23v-2q0 -6 5 -12.5t12 -9.5l12 -3t14 -2l13 -2q33 -3 62 12q23 12 55 36.5t41 44.5q1 2 1 6.5t-3 6.5q-4 2 -6 2q-6 0 -11 -10q-6 -12 -26.5 -30t-34.5 -27q-10 -6 -34 -15q-13 -3 -23 -2q-3 1 -4 2.5t0 4.5q1 14 2.5 20t8.5 18l19 14
l18 12q9 6 14.5 18t8.5 17q0 1 1 3t1 4v5q0 17 -15 21q-10 2 -15 2q-64 0 -88 -40zM115 530q-4 -12 -12 -19.5t-15 -10.5t-9 -3q3 6 9 20.5t14 24.5q2 1 5.5 2.5t5.5 1.5q1 1 3 0.5t3 -0.5t0 -3t-1 -4q0 -3 -3 -9zM151 645q0 8 -3 14q-2 5 -6 6q-8 2 -12 2q-10 0 -18 -8
l-33 -36l-4 -7q-1 -3 1 -5t4 -2q2 1 6 2.5t6 3.5l22 18l9 8q1 2 4 -1l2 -9l5 -16q2 -6 7 -9q4 -2 5 -2q3 0 5 2.5t2 6.5l-2 19v13z" />
    <glyph glyph-name="edieresis" unicode="&#xeb;" horiz-adv-x="164" 
d="M17 524q-18 -31 -26 -71q-2 -9 -2 -23v-2q0 -6 5 -12.5t12 -9.5l12 -3t14 -2l13 -2q33 -3 62 12q23 12 55 36.5t41 44.5q1 2 1 6.5t-3 6.5q-4 2 -6 2q-6 0 -11 -10q-6 -12 -26.5 -30t-34.5 -27q-10 -6 -34 -15q-13 -3 -23 -2q-3 1 -4 2.5t0 4.5q1 14 2.5 20t8.5 18l19 14
l18 12q9 6 14.5 18t8.5 17q0 1 1 3t1 4v5q0 17 -15 21q-10 2 -15 2q-64 0 -88 -40zM115 530q-4 -12 -12 -19.5t-15 -10.5t-9 -3q3 6 9 20.5t14 24.5q2 1 5.5 2.5t5.5 1.5q1 1 3 0.5t3 -0.5t0 -3t-1 -4q0 -3 -3 -9zM85 612h3q11 0 15 12l2 10v4q0 5 -2 7t-8 3q-7 1 -21 1
q-15 0 -21 -11q-5 -6 0 -11q10 -18 27 -15h5zM145 588q2 0 4.5 -0.5t4.5 0.5q2 3 4 9t2 9q0 6 -6 10q-2 12 -19 12l-5 1q-11 0 -19 -4q-5 -2 -6.5 -6t1.5 -8q8 -13 15 -19t20 -3q1 -1 4 -1z" />
    <glyph glyph-name="egrave" unicode="&#xe8;" horiz-adv-x="164" 
d="M17 524q-18 -31 -26 -71q-2 -9 -2 -23v-2q0 -6 5 -12.5t12 -9.5l12 -3t14 -2l13 -2q33 -3 62 12q23 12 55 36.5t41 44.5q1 2 1 6.5t-3 6.5q-4 2 -6 2q-6 0 -11 -10q-6 -12 -26.5 -30t-34.5 -27q-10 -6 -34 -15q-13 -3 -23 -2q-3 1 -4 2.5t0 4.5q1 14 2.5 20t8.5 18l19 14
l18 12q9 6 14.5 18t8.5 17q0 1 1 3t1 4v5q0 17 -15 21q-10 2 -15 2q-64 0 -88 -40zM115 530q-4 -12 -12 -19.5t-15 -10.5t-9 -3q3 6 9 20.5t14 24.5q2 1 5.5 2.5t5.5 1.5q1 1 3 0.5t3 -0.5t0 -3t-1 -4q0 -3 -3 -9zM76 656q-4 0 -5 -2t1 -5q2 -4 23 -35q1 -2 5 -4
q3 -2 6 -1.5t4 1.5q2 2 2.5 4t-0.5 4l-8 23q-6 17 -23 15h-5z" />
    <glyph glyph-name="f" unicode="f" horiz-adv-x="165" 
d="M243 874q0 -49 -12 -94q-11 -42 -32 -89q-14 -32 -22 -48q-22 -45 -61 -89q-16 -17 -21 -36l-4 -10q-2 -6 -2 -8q0 -4 4 -7q1 0 3 -5v-4l-2 -21q26 6 60.5 21.5t41.5 18.5l6 2q4 0 4 -4q0 -5 -7 -11q-11 -10 -49 -25.5t-60 -19.5q-11 -37 -34 -89q-26 -62 -61 -114
q-15 -22 -33 -42l-11 -10q-8 -8 -21 -6q-6 0 -7 6q-1 4 -1 11q0 10 1 15q4 27 17 56q11 26 21.5 57.5l13.5 40.5q19 63 25 82q18 54 42 112q43 104 80 180q18 37 45 80q19 32 25 39q3 6 9 13t9 11q5 6 15 8q14 0 17 -12q1 -4 1 -9zM230 860l-1 17q-1 0 -1 -0.5v-0.5l-5 -11
q-3 -7 -7 -17.5t-8 -24.5q-33 -94 -75 -203l-10 -28l-9 -22l5 5q11 15 37 60q18 32 34.5 73t25.5 77q14 50 14 75zM78 470l2 -1q2 2 2 3q1 3 1 9q-3 -1 -3.5 -3.5t-0.5 -3.5q-1 -1 -1 -4zM73 437l1 5q-9 -5 -15 -16l-3 -8v0l-1 -1q-11 -26 -35 -76l-34 -71q-14 -28 -23 -41
l-4 -8q4 2 11 11q28 38 56 96q27 53 47 109z" />
    <glyph glyph-name="g" unicode="g" horiz-adv-x="185" 
d="M-39 54q48 37 71 79q6 11 20 33l16 28l16 32q34 75 48 142q1 6 4.5 18.5t3.5 25.5q0 3 45 40q21 17 42 36q3 2 3.5 6.5t-1.5 7.5q-1 2 -5 2q-6 0 -9 -3q-22 -17 -45 -39l-17 -16l-13 -11l-11 13l-1 1q-10 11 -23 10l-7 -2h-3t-3 3l-1.5 0.5t-1.5 -0.5q-1 0 -8 -5
q-8 -8 -17 -26q-3 -8 -4 -10t-2 -2t-2 -1l-2 4q-1 1 -0.5 1.5l0.5 0.5q3 7 6.5 15t7.5 17l18 30l15 22q1 2 2.5 2t2.5 -2q8 -8 11 -13q5 -5 9 -1q8 5 5 15q-1 8 -8 14l-24 21q-9 6 -19 6l-15 1l-8 1q-15 0 -28 -11q-20 -17 -26 -40l-5 -21q-2 -6 -2 -17q0 -9 4 -27
q3 -13 15 -25q8 -9 20 -11l11 -1q5 -1 6 -2t0 -5l-6 -22l-8 -28q-3 -10 -11 -18l-32 -33l-47 -51q-42 -44 -70 -85q-17 -23 -26 -46q-8 -20 -8 -31q0 -18 15 -29q8 -7 17 -8l26 -3q37 0 59 18zM-116.5 52q-2.5 0 -5.5 1q-10 4 -13 15q-2 8 -2 11q0 5 2 11q4 19 15.5 38
t14.5 23q21 37 66 85q17 19 36.5 39t26.5 27l-1 -5q-20 -47 -39 -117q-14 -49 -35 -84q-10 -17 -25 -32q-16 -13 -36 -13q-2 1 -4.5 1z" />
    <glyph glyph-name="h" unicode="h" horiz-adv-x="220" 
d="M118 529q-1 -1 -1 -4h5l16 1q10 -1 15.5 -7.5t4.5 -15.5q-1 -7 -5 -19l-15 -50q-2 -7 -4 -23q0 -7 7 -4q3 1 9 5q14 10 41.5 37.5t44.5 46.5q4 5 9 5t7 -5.5t-2 -9.5q-12 -14 -40 -42.5t-42 -38.5q-31 -22 -51 -20q-25 4 -27 11q-1 3 -2.5 8.5t-1.5 9.5q1 27 11 56
q2 7 4 10.5t2 4.5q-9 -7 -13.5 -12t-10.5 -15q-22 -35 -47 -64q-10 -11 -17 -20.5t-13 -16.5q-5 -8 -17 -8q-11 2 -14 3.5t-3 8.5q0 6 1 10q2 17 23 68.5t24 59.5q3 9 42 87q11 25 20.5 43.5t15.5 31.5l12 25l49 104l36 70q1 3 12.5 26.5t20.5 21.5t13 -1q9 0 16 -7
q12 -14 12 -25q0 -17 3 -35q2 -10 2 -16q0 -40 -25 -86q-24 -45 -62 -88l-16 -19q-4 -5 -10 -15zM187.5 679.5q0.5 -1.5 0.5 -2.5q0 1 2 1q37 46 50 100l3 16l-1 2q-1 0 -1 -1l-2 -2l-51 -111q-1 -1 -0.5 -2.5z" />
    <glyph glyph-name="i" unicode="i" horiz-adv-x="129" 
d="M97 592l23 -7q2 0 3 1q3 3 2 3q6 5 8.5 13.5t2.5 13.5q-1 11 -10 17l-9 6t-11 5l-9 6q-9 5 -16 1q-6 -3 -13 -18q-1 -3 0 -6q4 -6 3 -13q0 -6 5 -9zM101.5 435.5q27.5 32.5 42.5 57.5q1 1 4.5 4t6.5 1q4 -2 3.5 -6t-1.5 -5l-46 -63q-3 -4 -9.5 -11.5t-11.5 -12.5
q-15 -15 -31 -20q-4 -1 -11 -1q-15 0 -27.5 10t-16.5 28q-3 12 -3 25q0 11 1 17q7 40 20 64q0 2 20 30l6 8q6 7 12 3q2 -1 9 1q7 0 11 -4q6 -7 10.5 -13t4.5 -13q0 -5 -3 -13q-6 -16 -10 -24l-26 -64q-7 -16 -9 -32q0 -6 10 -4q17 5 44.5 37.5z" />
    <glyph glyph-name="iacute" unicode="&#xed;" horiz-adv-x="129" 
d="M122 652q-10 0 -16 -10q-8 -11 -20 -35q-1 -1 -1 -5q3 -7 12 -7q5 0 8 4q18 24 26 36q2 4 4 12q1 3 -3 5h-6h-4zM100.5 434.5q27.5 32.5 42.5 57.5q1 1 4.5 4t6.5 1q4 -2 3.5 -6t-1.5 -5l-46 -63q-3 -4 -9.5 -11.5t-11.5 -12.5q-14 -14 -31 -20q-4 -1 -11 -1
q-15 0 -27.5 10t-16.5 28q-3 12 -3 25q0 11 1 17q7 40 20 64q0 2 20 30l6 8q6 7 12 3q2 -1 9 1q7 0 11 -4q6 -7 10.5 -13t4.5 -13q0 -5 -3 -13q-6 -16 -10 -24l-26 -64q-7 -16 -9 -32q0 -6 10 -4q17 5 44.5 37.5z" />
    <glyph glyph-name="icircumflex" unicode="&#xee;" horiz-adv-x="129" 
d="M130.5 622q0.5 4 -0.5 8q0 5 -2 13q-3 6 -7 6q-8 2 -12 2q-11 0 -18 -8l-32 -36q-1 -1 -4 -7q-1 -2 0.5 -4.5t3.5 -1.5q9 2 13 5l21 18q6 6 10 8q0 1 1.5 0.5t1.5 -1.5l3 -9l4 -16q2 -6 7 -9q2 -1 5 -1q7 0 7 8q0 4 -2 20q0 1 0.5 5zM100.5 435.5q27.5 32.5 42.5 57.5
q1 1 4.5 4t6.5 1q4 -2 3.5 -6t-1.5 -5l-46 -63q-3 -4 -9.5 -11.5t-11.5 -12.5q-14 -15 -31 -20q-4 -1 -11 -1q-15 0 -27.5 10t-16.5 28q-3 12 -3 25q0 11 1 17q7 40 20 64q0 2 20 30l6 8q6 7 12 3q2 -1 9 1q7 0 11 -4q6 -7 10.5 -13t4.5 -13q0 -5 -3 -13q-6 -16 -10 -24
l-26 -64q-7 -16 -9 -32q0 -6 10 -4q17 5 44.5 37.5z" />
    <glyph glyph-name="idieresis" unicode="&#xef;" horiz-adv-x="129" 
d="M71 602q7 0 10 2.5t5 8.5l1 7v4q0 4 -2 5.5t-6 1.5q-7 3 -16 1q-12 0 -17 -9q-3 -5 -1 -9q10 -14 22 -11zM130 579l5 -1q3 0 6 8l1 8q0 4 -4 8q-1 6 -5 7.5t-11 1.5l-3 1q-8 0 -16 -3q-8 -5 -4 -12q6 -10 12 -15t16 -3h3zM100.5 435.5q27.5 32.5 42.5 57.5q1 1 4.5 4
t6.5 1q4 -2 3.5 -6t-1.5 -5l-46 -63q-3 -4 -9.5 -11.5t-11.5 -12.5q-14 -15 -31 -20q-4 -1 -11 -1q-15 0 -27.5 10t-16.5 28q-3 12 -3 25q0 11 1 17q7 40 20 64q0 2 20 30l6 8q6 7 12 3q2 -1 9 1q7 0 11 -4q6 -7 10.5 -13t4.5 -13q0 -5 -3 -13q-6 -16 -10 -24l-26 -64
q-7 -16 -9 -32q0 -6 10 -4q17 5 44.5 37.5z" />
    <glyph glyph-name="igrave" unicode="&#xec;" horiz-adv-x="129" 
d="M62.5 635.5q-1.5 0.5 -2.5 -0.5q-4 0 -5 -2t1 -5l23 -35l5 -4q2 -2 5.5 -1.5t4.5 2.5q4 4 2 7q-1 5 -8 23q-6 17 -23 15q-1 0 -2.5 0.5zM100.5 435.5q27.5 32.5 42.5 57.5q1 1 4.5 4t6.5 1q4 -2 3.5 -6t-1.5 -5l-46 -63q-3 -4 -9.5 -11.5t-11.5 -12.5q-14 -15 -31 -20
q-4 -1 -11 -1q-15 0 -27.5 10t-16.5 28q-3 12 -3 25q0 11 1 17q7 40 20 64q0 2 20 30l6 8q6 7 12 3q2 -1 9 1q7 0 11 -4q6 -7 10.5 -13t4.5 -13q0 -5 -3 -13q-6 -16 -10 -24l-26 -64q-7 -16 -9 -32q0 -6 10 -4q17 5 44.5 37.5z" />
    <glyph glyph-name="j" unicode="j" horiz-adv-x="105" 
d="M51 563q-3 0 -7.5 3.5t-7.5 4.5l-1 4q5 25 6 28q5 13 15 14l10 -1l18 -4q13 -7 20 -20l5 -10q6 -10 -2 -14q-5 -2 -11 -4t-16 -4h-10q-12 4 -18 3h-1zM135 502q4 0 5.5 -4.5t-2.5 -8.5l-88 -103l-16 -16q-7 -6 -12 -18q-28 -68 -43 -102l-45 -100l-13 -23q-2 -4 -20 -32
q-12 -21 -38 -35q-26 -17 -57 -17q-15 0 -18 15q-1 2 -1 7q0 6 1 10t2 7q6 19 17 38q21 40 63 87q20 23 21 25t12 26l85 202q1 2 11.5 25.5t21.5 32.5q4 3 10.5 3h7.5q10 -2 17 -9l12 -12q4 -3 4 -9q0 -3 -2 -13q-3 -16 -17 -51l-7 -18q-1 -1 -0.5 -1.5l0.5 -0.5h2l54 61
l27 31q3 3 6 3zM-135.5 172.5q1.5 2.5 0.5 4.5q-6 -5 -6 -7q-16 -23 -29 -44t-17 -42q-1 -4 -1 -14q0 -3 3 -2q10 7 16 19q13 30 15 38q2 4 7 19l10 25q0 1 1.5 3.5z" />
    <glyph glyph-name="k" unicode="k" horiz-adv-x="190" 
d="M268 890q0 -7 -2 -21q-2 -21 -5 -31l-11 -41q-10 -35 -37 -75l-40 -56l-15 -24l-30 -59q-3 -5 3 -5h18q9 0 15 -8q8 -10 4 -21q-2 -6 -10 -16q-25 -30 -63 -51q-16 -9 -13 -24q1 -5 3 -22t7 -24q7 -9 17 -7l13 4q9 3 40 29t46 47q3 5 9 5q5 0 7 -3t-2 -8q-26 -34 -44 -52
q-21 -21 -40 -31q-18 -8 -33 -8q-5 0 -17 2q-17 3 -26 20l-11 20q0 2 -2 2q-3 0 -3 -2q-3 -7 -22 -37q-11 -18 -11 -19q-3 -7 -8.5 -11.5t-11.5 -3.5q-1 0 -8 -1.5t-9 1.5q-4 5 -4 16q0 26 23 83l10 23q2 6 2 9q4 8 11.5 26.5t11.5 29.5q19 51 64 136l68 130q18 37 51 76
l16 16q5 3 10 2q2 -1 5 -0.5t6 -0.5q5 0 11 -4.5t7 -9.5v-1zM246 822q-1 1 -1 4l-3 -3l-12 -28l-26 -60l-2 -4v-1h1l5 7q21 33 35 76zM120 532q-13 -12 -20 -25v-3q2 0 2 1q21 15 34 30q5 4 11 14q1 1 1.5 3.5t1.5 3.5l-1 2q-1 1 -1.5 0.5t-1.5 -0.5l-2 -2z" />
    <glyph glyph-name="l" unicode="l" horiz-adv-x="135" 
d="M259 898.5q5 -14.5 5 -32.5q0 -24 -7 -43q-13 -33 -26 -56q-12 -21 -33 -54t-37 -58q-19 -41 -44 -92q-18 -36 -28 -53l-17 -33l-33 -65q-13 -26 -14 -46q-4 -22 18 -22q9 0 15 2q16 4 37 23.5t37.5 38t21.5 24.5q1 1 4.5 4t7.5 0q4 -1 4 -5q0 -3 -1.5 -5.5t-2.5 -3.5
q0 -2 -20 -26t-46.5 -45.5t-52.5 -24.5q-14 -2 -21 -1q-8 0 -16 5q-14 6 -18 25q-4 24 -4 37q0 7 2 27q7 32 17 67q16 54 41 108l72 156l49 105q16 30 34 51q6 8 14 14q9 8 15 3q2 -2 4 -1.5t3 0.5q5 0 6 -3q9 -6 14 -20.5zM253 867l-1 13q-4 -24 -14 -48t-12 -29
q-13 -37 -32 -77l41 71q18 39 18 70z" />
    <glyph glyph-name="m" unicode="m" horiz-adv-x="280" 
d="M307.5 480q-5.5 -4 -7.5 -5l-40 -30l-23 -18q-21 -18 -49 -15q-4 1 -7 0.5t-7 0.5q-18 1 -19 19q-1 3 -0.5 7t0.5 6l2 13q0 1 -1.5 1.5l-1.5 0.5q-6 -3 -11 -8q-18 -13 -30 -25q-10 -10 -25 -10q-9 0 -13 1q-2 0 -5 5q0 6 1 9q2 25 13 58l1 4v2h-2q-6 -3 -10 -7
q-2 -2 -13.5 -11.5t-19.5 -20.5q-4 -5 -18 -17q-3 -3 -7 -3q-9 -1 -26 -1q-6 0 -6 6q-1 1 -1 5q3 42 30 80q4 5 6.5 7t7.5 -1h2q6 2 8 2q4 0 10 -4l6.5 -6.5t6.5 -13.5v-2q1 -4 2.5 -4t3.5 1l22 11l2 2q11 6 28 6l16 -1q10 -1 17 -10l11 -12q2 -1 3.5 -5.5t3.5 -5.5
q8 9 17 9h11h3q7 0 12 -5q5 -3 10 -9t8 -9q2 -4 2 -5q0 -3 -2 -9l-2 -10l3 -1q4 0 8 4l48 29l20 13q5 3 9 3q6 0 7 -4t-4 -8q-5 -5 -10.5 -9z" />
    <glyph glyph-name="n" unicode="n" horiz-adv-x="205" 
d="M231 492q5 0 9 -2.5t2 -3.5q-2 -2 -26.5 -31.5t-58.5 -29.5q-20 0 -32 19q-2 3 -2 12l3 31v4q-1 -1 -2 -0.5t-2 -0.5q-36 -31 -53 -59q-6 -9 -7 -10q-6 -7 -16 -10q-8 -2 -13 -2q-8 0 -16 1.5t-16 1.5q-10 0 -10 10q0 7 2 15.5t3 12.5q8 31 23 53l11 22q1 2 1 7
q1 3 7.5 10t8.5 7q4 0 6 1.5t3 1.5q2 0 9 -7q18 -22 21 -36l1 -5q3 -6 7 -3l13 6l27 12l12 3q29 2 26 -28q-2 -11 -4 -37q0 -4 2.5 -5.5t5.5 0.5q15 5 27 19q14 14 24 20q1 1 4 1z" />
    <glyph glyph-name="ntilde" unicode="&#xf1;" horiz-adv-x="205" 
d="M231 492q5 0 9 -2.5t2 -3.5q-2 -2 -26.5 -31.5t-58.5 -29.5q-20 0 -32 19q-2 3 -2 12l3 31v4q-1 -1 -2 -0.5t-2 -0.5q-36 -31 -53 -59q-6 -9 -7 -10q-6 -7 -16 -10q-8 -2 -13 -2q-8 0 -16 1.5t-16 1.5q-10 0 -10 10q0 7 2 15.5t3 12.5q8 31 23 53l11 22q1 2 1 7
q1 3 7.5 10t8.5 7q4 0 6 1.5t3 1.5q2 0 9 -7q18 -22 21 -36l1 -5q3 -6 7 -3l13 6l27 12l12 3q29 2 26 -28q-2 -11 -4 -37q0 -4 2.5 -5.5t5.5 0.5q15 5 27 19q14 14 24 20q1 1 4 1zM85 600q-6 -4 -9 -12q-1 -3 0 -6t3 -4q3 0 6 3q14 9 18 11q5 3 10 -2l3 -3l8 -9q8 -6 13 -6
l9 -2h4q7 0 12 4q2 1 4 3t6 4l3 4q3 3 3 9q0 2 -1 2q-2 0 -5.5 0.5t-6.5 -1.5l-12 -5q-6 -3 -9 -3t-10 7l-8 7q-6 5 -13 6t-9 1q-12 -2 -19 -8z" />
    <glyph glyph-name="o" unicode="o" horiz-adv-x="160" 
d="M197 490q1 0 4 -1t3 -4t-13 -3q-9 0 -16 1t-10 1l-33 4q-5 0 -6.5 -1t-2.5 -7q-5 -15 -12 -30q-12 -25 -33 -35q-11 -5 -22 -6q-14 -2 -21 -2t-21 2q-5 0 -9 3q-11 6 -11 20q0 23 3 33q8 28 27 37q4 3 12 3q5 -1 13 -1h3q11 0 18 -10q7 -8 7 -12q0 -1 -5 -11l-9 -15
l-8 -16v-4q1 0 1.5 -0.5t1.5 0.5q11 3 20 12q15 13 27 38q1 5 -2 7l-11 6q-10 10 -13 17q-2 4 -2 11q0 6 1 9q3 11 13 14q10 1 19 -5t14 -17q2 -6 4 -20q1 -7 7 -9l32 -5zM112 517q-2 13 -9 19q-6 6 -9 -3l-1 -5q0 -10 10 -20l7 -3l3 9q0 2 -1 3z" />
    <glyph glyph-name="oacute" unicode="&#xf3;" horiz-adv-x="160" 
d="M197 490q1 0 4 -1t3 -4t-13 -3q-9 0 -16 1t-10 1l-33 4q-5 0 -6.5 -1t-2.5 -7q-5 -15 -12 -30q-12 -25 -33 -35q-11 -5 -22 -6q-14 -2 -21 -2t-21 2q-5 0 -9 3q-11 6 -11 20q0 23 3 33q8 28 27 37q4 3 12 3q5 -1 13 -1h3q11 0 18 -10q7 -8 7 -12q0 -1 -5 -11l-9 -15
l-8 -16v-4q1 0 1.5 -0.5t1.5 0.5q11 3 20 12q15 13 27 38q1 5 -2 7l-11 6q-10 10 -13 17q-2 4 -2 11q0 6 1 9q3 11 13 14q10 1 19 -5t14 -17q2 -6 4 -20q1 -7 7 -9l32 -5zM112 517q-2 13 -9 19q-6 6 -9 -3l-1 -5q0 -10 10 -20l7 -3l3 9q0 2 -1 3zM131 634q-10 0 -16 -10
q-3 -4 -21 -35q0 -1 -0.5 -2.5t0.5 -2.5q3 -7 12 -7q5 0 8 4q18 24 26 36q2 2 4 12q0 4 -4 4q-2 1 -5 1h-4z" />
    <glyph glyph-name="ocircumflex" unicode="&#xf4;" horiz-adv-x="160" 
d="M197 490q1 0 4 -1t3 -4t-13 -3q-9 0 -16 1t-10 1l-33 4q-5 0 -6.5 -1t-2.5 -7q-5 -15 -12 -30q-12 -25 -33 -35q-11 -5 -22 -6q-14 -2 -21 -2t-21 2q-5 0 -9 3q-11 6 -11 20q0 23 3 33q8 28 27 37q4 3 12 3q5 -1 13 -1h3q11 0 18 -10q7 -8 7 -12q0 -1 -5 -11l-9 -15
l-8 -16v-4q1 0 1.5 -0.5t1.5 0.5q11 3 20 12q15 13 27 38q1 5 -2 7l-11 6q-10 10 -13 17q-2 4 -2 11q0 6 1 9q3 11 13 14q10 1 19 -5t14 -17q2 -6 4 -20q1 -7 7 -9l32 -5zM112 517q-2 13 -9 19q-6 6 -9 -3l-1 -5q0 -10 10 -20l7 -3l3 9q0 2 -1 3zM132 614q0 8 -3 14
q-2 5 -6 6q-8 2 -12 2q-10 0 -18 -8l-33 -36l-4 -7q-1 -3 1 -5t4 -2q2 1 6 2.5t6 3.5l22 18l9 8q1 2 4 -1l2 -9l5 -16q2 -6 7 -9q4 -2 5 -2q3 0 5 2.5t2 6.5l-2 19v13z" />
    <glyph glyph-name="odieresis" unicode="&#xf6;" horiz-adv-x="160" 
d="M197 490q1 0 4 -1t3 -4t-13 -3q-9 0 -16 1t-10 1l-33 4q-5 0 -6.5 -1t-2.5 -7q-5 -15 -12 -30q-12 -25 -33 -35q-11 -5 -22 -6q-14 -2 -21 -2t-21 2q-5 0 -9 3q-11 6 -11 20q0 23 3 33q8 28 27 37q4 3 12 3q5 -1 13 -1h3q11 0 18 -10q7 -8 7 -12q0 -1 -5 -11l-9 -15
l-8 -16v-4q1 0 1.5 -0.5t1.5 0.5q11 3 20 12q15 13 27 38q1 5 -2 7l-11 6q-10 10 -13 17q-2 4 -2 11q0 6 1 9q3 11 13 14q10 1 19 -5t14 -17q2 -6 4 -20q1 -7 7 -9l32 -5zM112 517q-2 13 -9 19q-6 6 -9 -3l-1 -5q0 -10 10 -20l7 -3l3 9q0 2 -1 3zM76 600h3q11 0 15 12l2 10
v4q0 5 -2 7t-8 3q-7 1 -21 1q-15 0 -21 -11q-5 -6 0 -11q10 -18 27 -15h5zM136 576q2 0 4.5 -0.5t4.5 0.5q2 3 4 9t2 9q0 6 -6 10q-2 12 -19 12l-5 1q-11 0 -19 -4q-5 -2 -6.5 -6t1.5 -8q8 -13 15 -19t20 -3q1 -1 4 -1z" />
    <glyph glyph-name="ograve" unicode="&#xf2;" horiz-adv-x="160" 
d="M197 490q1 0 4 -1t3 -4t-13 -3q-9 0 -16 1t-10 1l-33 4q-5 0 -6.5 -1t-2.5 -7q-5 -15 -12 -30q-12 -25 -33 -35q-11 -5 -22 -6q-14 -2 -21 -2t-21 2q-5 0 -9 3q-11 6 -11 20q0 23 3 33q8 28 27 37q4 3 12 3q5 -1 13 -1h3q11 0 18 -10q7 -8 7 -12q0 -1 -5 -11l-9 -15
l-8 -16v-4q1 0 1.5 -0.5t1.5 0.5q11 3 20 12q15 13 27 38q1 5 -2 7l-11 6q-10 10 -13 17q-2 4 -2 11q0 6 1 9q3 11 13 14q10 1 19 -5t14 -17q2 -6 4 -20q1 -7 7 -9l32 -5zM112 517q-2 13 -9 19q-6 6 -9 -3l-1 -5q0 -10 10 -20l7 -3l3 9q0 2 -1 3zM74 629q-4 0 -5 -2t1 -5
q2 -4 23 -35q1 -2 5 -4q3 -2 6 -1.5t4 1.5q2 2 2.5 4t-0.5 4l-8 23q-6 17 -23 15h-5z" />
    <glyph glyph-name="oslash" unicode="&#xf8;" horiz-adv-x="160" 
d="M207 488q3 -1 3 -4t-13 -3q-9 0 -16 1t-10 1l-33 4q-5 0 -6.5 -1t-2.5 -7q-5 -15 -12 -30q-12 -25 -33 -35q-11 -5 -22 -6l-7 -1l-8 -16l-9 -17q-1 -4 -5.5 -4.5t-6.5 1.5q-4 3 -3 7t5 12l6 16q-4 0 -14 2q-5 0 -9 3q-11 6 -11 20q0 23 3 33q8 28 27 37q4 3 12 3
q5 -1 13 -1h3q10 0 15 -7l7 15l4 8q-1 3 -1 8q0 6 1 8q3 11 13 14h5q4 6 23 30q7 7 12 6h1q4 0 4 -3q0 -4 -4 -14q-5 -14 -14 -29v-0.5t-1 -0.5q3 -3 7 -11q2 -6 4 -20q1 -7 7 -9l32 -5l30 -4q1 0 4 -1zM119 513q0 2 -1 3q0 4 -2 8l-9 -15l2 -2l7 -3zM109 492l-8 5
q-8 -14 -11 -21l-20 -39q7 3 14 10q15 13 27 38q1 5 -2 7z" />
    <glyph glyph-name="otilde" unicode="&#xf5;" horiz-adv-x="160" 
d="M197 490q1 0 4 -1t3 -4t-13 -3q-9 0 -16 1t-10 1l-33 4q-5 0 -6.5 -1t-2.5 -7q-5 -15 -12 -30q-12 -25 -33 -35q-11 -5 -22 -6q-14 -2 -21 -2t-21 2q-5 0 -9 3q-11 6 -11 20q0 23 3 33q8 28 27 37q4 3 12 3q5 -1 13 -1h3q11 0 18 -10q7 -8 7 -12q0 -1 -5 -11l-9 -15
l-8 -16v-4q1 0 1.5 -0.5t1.5 0.5q11 3 20 12q15 13 27 38q1 5 -2 7l-11 6q-10 10 -13 17q-2 4 -2 11q0 6 1 9q3 11 13 14q10 1 19 -5t14 -17q2 -6 4 -20q1 -7 7 -9l32 -5zM112 517q-2 13 -9 19q-6 6 -9 -3l-1 -5q0 -10 10 -20l7 -3l3 9q0 2 -1 3zM61 615q-6 -4 -9 -12
q-1 -3 0 -6t3 -4q3 0 6 3q14 9 18 11q5 3 10 -2l3 -3l8 -9q8 -6 13 -6l9 -2h4q7 0 12 4q2 1 4 3t6 4l3 4q3 3 3 9q0 2 -1 2q-2 0 -5.5 0.5t-6.5 -1.5l-12 -5q-6 -3 -9 -3t-10 7l-8 7q-6 5 -13 6t-9 1q-12 -2 -19 -8z" />
    <glyph glyph-name="oe" unicode="&#x153;" horiz-adv-x="272" 
d="M312.5 501.5q1.5 -3.5 1 -7t-0.5 -4.5q-9 -20 -41 -44.5t-55 -36.5q-29 -15 -62 -12l-13 2q-6 0 -14 2l-12 3q-8 3 -13 10t-4 14q0 6 1 9q-10 -8 -16 -11q-11 -5 -22 -6q-14 -2 -21 -2t-21 2q-5 0 -9 3q-11 6 -11 20q0 23 3 33q8 28 27 37q4 3 12 3q5 -1 13 -1h3
q11 0 18 -10q7 -8 7 -12q0 -1 -5 -11l-9 -15l-8 -16v-4q1 0 1.5 -0.5t1.5 0.5q11 3 20 12q15 13 27 38q1 5 -2 7l-11 6q-10 10 -13 17q-2 4 -2 11q0 6 1 9q3 11 13 14q10 1 19 -5t14 -17q2 -6 2 -10q26 33 83 33q5 0 15 -2q17 -4 15 -26q0 -2 -1 -4t-1 -3q-3 -5 -8.5 -17
t-14.5 -18l-18 -12l-19 -14q-7 -12 -8.5 -18t-2.5 -20q-1 -3 0 -4.5t4 -2.5h6q5 0 17 2q24 9 34 15q14 9 34.5 27t26.5 30q5 10 11 10t7.5 -3.5zM116 516l3 9q0 2 -1 3q-2 13 -9 19q-6 6 -9 -3l-1 -5q0 -10 10 -20zM198 515.5q-6 -14.5 -9 -20.5q2 0 9 3t15 10.5t12 19.5
q3 6 3 9q0 1 1 4t0 3t-3 0.5t-3 -0.5q-2 0 -5.5 -1.5t-5.5 -2.5q-8 -10 -14 -24.5z" />
    <glyph glyph-name="p" unicode="p" horiz-adv-x="200" 
d="M229 501q6 0 6 -5t-9 -13l-100 -80l-28 -23q-9 -8 -25 -6l-1 0.5t-1 1.5q0 8 3 10l14 15l33 33q4 4 18 22l8 16q1 2 1 8q0 4 -2 6.5t-5 2.5q-7 0 -12 -4q-16 -11 -37 -32q-23 -25 -47 -67l-18 -31q-9 -17 -14 -32l-53 -151q-12 -37 -25 -61q-17 -37 -32 -56l-13 -14
q-4 -4 -7 -5q-2 -1 -10 -4t-14 -3q-6 -1 -18 -1q-10 0 -14 11q-3 8 -3 16q0 6 2 16q6 23 18 42l24 45l30 52q24 39 42 81q3 6 7 18t8 17q2 2 3.5 6.5t2.5 6.5l8 21q10 28 16 42q4 11 8 19l7 14l9 20q10 21 17 38l7 14q4 7 9 5l2 1h2q7 0 12 -4.5t5 -12.5q0 -15 -4 -35
q-2 -4 -1 -8q14 12 20 19q21 18 41 27q13 6 26 5q10 0 19 -9q6 -10 5 -19l-3 -12q-1 -1 0 -2h1l5 3l41 30q7 6 16 6zM-93 193q-2 -1 -6 -7l-43 -80l-4 -9q-10 -21 -11 -42q0 -1 2 -3h1t1 1q7 7 10 12q9 13 21 45l7 20l21 59q1 1 1 4z" />
    <glyph glyph-name="thorn" unicode="&#xfe;" horiz-adv-x="600" 
 />
    <glyph glyph-name="q" unicode="q" horiz-adv-x="205" 
d="M236 504q4 0 7.5 -4.5t1.5 -8.5q-6 -16 -28 -55q-9 -16 -21 -40q-15 -41 -43 -91l-43 -79q-15 -28 -35 -59l-57 -90q-7 -10 -13 -19t-10 -16q-5 -8 -17 -22l-24 -29q-6 -6 -13 -5q-8 1 -9 3t0 9q5 18 8 31q7 38 23 80l39 95l31 70l11 24q31 76 41 111q3 9 5.5 18.5
t5.5 19.5v6q-1 -1 -3 -0.5t-3 -0.5q-15 -6 -29 -6q-22 0 -45 14q-4 2 -6 4q-11 8 -10 22q8 65 66 84q11 3 19 3q13 0 25 -3q6 -2 11 -8q4 -5 4 -7t-6 -4q-10 -2 -17 -13q-13 -20 -19 -35q-12 -22 -19 -32q-1 -1 -3 -5q-1 -1 0 -2.5t2 -0.5q20 0 38 13q4 2 5.5 6.5t2.5 5.5
q3 9 11 27q11 21 30 29q14 6 19 12q1 2 5 0h5q8 0 13.5 -5t5.5 -13q0 -29 -7 -48q-4 -10 -8.5 -23.5t-6.5 -20.5l-21 -60q-3 -9 -18 -44q-12 -31 -29 -71l-20 -50q-1 -3 -4 -8t-2 -10l4 8q12 20 27 50q59 113 70 143q7 21 25 54.5t20 38.5q3 7 8 7z" />
    <glyph glyph-name="r" unicode="r" horiz-adv-x="180" 
d="M208 496q4 0 6.5 -2t-0.5 -5q-22 -22 -25 -24l-25 -20q-24 -16 -51 -38q-28 -28 -59 -28q-9 0 -25 8q-5 1 -5 12q0 8 2 18q2 14 4 20l6 14l19 27l5 6q1 1 0.5 2t-1.5 1l-16 1q-8 0 -13.5 2t-7.5 5q-8 7 -8 20q0 15 10 25t17 12q3 1 10 1t11.5 -5.5t2.5 -11.5
q-5 -16 -11 -25q-4 -8 -4 -9q0 -2 3 -2.5t8 -0.5h5q7 0 11 4q6 7 13 13l8 6q5 3 9 2t8 -1h6h2q5 0 11 -6t8 -10q2 -2 0 -6q0 -4 -3 -7q-9 -24 -31 -56q-4 -5 -6.5 -9.5t-4.5 -7.5t2 -5q1 -3 5 -1q13 11 28 22q34 26 41 31l29 26q1 2 6 2zM49 533l-1 2h-1q-6 -7 -7 -15l1 -3
l2 2z" />
    <glyph glyph-name="s" unicode="s" horiz-adv-x="120" 
d="M152 507h4q4 0 7 -2.5t3 -5.5q0 -8 -8 -9q-14 -4 -38.5 -17t-36.5 -21q-5 -3 -5 -8q0 -16 -5 -36q-7 -34 -37 -52q-25 -15 -56 -15q-11 0 -17 1h-1q-14 4 -18 13q-1 3 -1 8q0 10 7 17l12 11l47 31l4 3q4 3 5 4.5t-1 6.5q-7 33 -18 66q-2 9 -5 27.5t-2 23.5q1 3 2 4.5
t2 2.5q2 2 4.5 2h3.5h8q3 1 7 1q7 0 13 -6l7 -7q22 -24 26 -41l11 -37q1 -3 4 -2q49 33 72 37zM21 408q1 1 -1 3h-1t-2 -1q-33 -20 -45 -30l-9 -9q-3 -3 -3 -6l-1 -4q0 -7 9 -7q12 0 22 7q22 14 29 36q2 6 2 11z" />
    <glyph glyph-name="germandbls" unicode="&#xdf;" horiz-adv-x="600" 
 />
    <glyph glyph-name="t" unicode="t" horiz-adv-x="170" 
d="M208.5 488.5q-0.5 -3.5 -1.5 -4.5l-21 -31q-18 -26 -23 -31q-6 -9 -35 -35q-8 -6 -16 -11t-11 -7l-6 -3q-19 -9 -39 -9q-11 0 -23 3q-25 7 -32 29q-4 18 -4 27q0 25 11 58l20 61v3q2 4 2 6q3 8 8 20t10 22h-1l-64 7q-6 1 -7 4t-1 4l-1 3q0 3 6 3q18 0 28 -1l48 -4
q8 14 13 21q4 8 18 26l10 11q5 3 8 1q5 -1 9 0q3 1 8 1q11 0 18 -9l3 -3l4 -5q2 0 4.5 -0.5t4.5 0.5q5 0 -2 -16.5t-18 -35.5l47 -5q6 -1 11 -3.5t7 -5.5l1 -3q0 -3 -6 -3q-19 0 -28 1q-26 2 -40 4l-1 -2q-1 -2 -4 -6.5t-4 -6.5q-1 -1 -1 -3q-6 -7 -12 -18.5t-9 -17.5
l-24 -48q-6 -14 -11 -23q-7 -14 -16 -44q-2 -6 -2 -13.5v-9.5q2 -9 13 -9q9 0 20.5 4t14.5 6l4 2l4 1q24 16 45 38l43 55l7 10q1 1 4.5 2.5t6.5 -0.5q3 -3 2.5 -6.5z" />
    <glyph glyph-name="u" unicode="u" horiz-adv-x="238" 
d="M270 512q1 1 6 4t11 0q5 -3 6 -7.5t-2 -8.5q-4 -6 -22.5 -31.5t-37.5 -43.5q-13 -12 -26 -23q-17 -12 -32 -12q-14 0 -27 12q-9 9 -9 27q0 9 1 13l-1 4l-1 0.5t-1 -0.5q-2 -1 -6 -5l-39 -40q-15 -16 -44 -14l-15 1q-13 1 -21 9t-9 20q0 9 1 14q5 38 15 62q2 7 8 27t10 24
t11.5 4.5t9.5 0.5l18 -1h5q9 0 14 -5q8 -8 14 -17q2 -4 1 -8q0 -9 -3 -20q-14 -39 -17 -50l-2 -8v-1q2 -1 3 0l5 3l27 26l16 17q28 30 35 41q5 7 15 7q7 -1 10.5 -5.5t2.5 -11.5q-2 -16 -6 -27l-8 -25l-3.5 -14t-6.5 -18q-3 -4 -3 -10v-13h2q4 0 6.5 2.5l3.5 3.5q4 2 22 18
q19 19 36.5 43t23.5 31q3 3 3 5z" />
    <glyph glyph-name="uacute" unicode="&#xfa;" horiz-adv-x="238" 
d="M270 512q1 1 6 4t11 0q5 -3 6 -7.5t-2 -8.5q-4 -6 -22.5 -31.5t-37.5 -43.5q-13 -12 -26 -23q-17 -12 -32 -12q-14 0 -27 12q-9 9 -9 27q0 9 1 13l-1 4l-1 0.5t-1 -0.5q-2 -1 -6 -5l-39 -40q-15 -16 -44 -14l-15 1q-13 1 -21 9t-9 20q0 9 1 14q5 38 15 62q2 7 8 27t10 24
t11.5 4.5t9.5 0.5l18 -1h5q9 0 14 -5q8 -8 14 -17q2 -4 1 -8q0 -9 -3 -20q-14 -39 -17 -50l-2 -8v-1q2 -1 3 0l5 3l27 26l16 17q28 30 35 41q5 7 15 7q7 -1 10.5 -5.5t2.5 -11.5q-2 -16 -6 -27l-8 -25l-3.5 -14t-6.5 -18q-3 -4 -3 -10v-13h2q4 0 6.5 2.5l3.5 3.5q4 2 22 18
q19 19 36.5 43t23.5 31q3 3 3 5zM170 639q-10 0 -16 -10q-3 -4 -21 -35q0 -1 -0.5 -2.5t0.5 -2.5q3 -7 12 -7q5 0 8 4q18 24 26 36q2 2 4 12q0 4 -4 4q-2 1 -5 1h-4z" />
    <glyph glyph-name="ucircumflex" unicode="&#xfb;" horiz-adv-x="238" 
d="M270 512q1 1 6 4t11 0q5 -3 6 -7.5t-2 -8.5q-4 -6 -22.5 -31.5t-37.5 -43.5q-13 -12 -26 -23q-17 -12 -32 -12q-14 0 -27 12q-9 9 -9 27q0 9 1 13l-1 4l-1 0.5t-1 -0.5q-2 -1 -6 -5l-39 -40q-15 -16 -44 -14l-15 1q-13 1 -21 9t-9 20q0 9 1 14q5 38 15 62q2 7 8 27t10 24
t11.5 4.5t9.5 0.5l18 -1h5q9 0 14 -5q8 -8 14 -17q2 -4 1 -8q0 -9 -3 -20q-14 -39 -17 -50l-2 -8v-1q2 -1 3 0l5 3l27 26l16 17q28 30 35 41q5 7 15 7q7 -1 10.5 -5.5t2.5 -11.5q-2 -16 -6 -27l-8 -25l-3.5 -14t-6.5 -18q-3 -4 -3 -10v-13h2q4 0 6.5 2.5l3.5 3.5q4 2 22 18
q19 19 36.5 43t23.5 31q3 3 3 5zM180 622q0 8 -3 14q-2 5 -6 6q-8 2 -12 2q-10 0 -18 -8l-33 -36l-4 -7q-1 -3 1 -5t4 -2q2 1 6 2.5t6 3.5l22 18l9 8q1 2 4 -1l2 -9l5 -16q2 -6 7 -9q4 -2 5 -2q3 0 5 2.5t2 6.5l-2 19v13z" />
    <glyph glyph-name="udieresis" unicode="&#xfc;" horiz-adv-x="238" 
d="M270 512q1 1 6 4t11 0q5 -3 6 -7.5t-2 -8.5q-4 -6 -22.5 -31.5t-37.5 -43.5q-13 -12 -26 -23q-17 -12 -32 -12q-14 0 -27 12q-9 9 -9 27q0 9 1 13l-1 4l-1 0.5t-1 -0.5q-2 -1 -6 -5l-39 -40q-15 -16 -44 -14l-15 1q-13 1 -21 9t-9 20q0 9 1 14q5 38 15 62q2 7 8 27t10 24
t11.5 4.5t9.5 0.5l18 -1h5q9 0 14 -5q8 -8 14 -17q2 -4 1 -8q0 -9 -3 -20q-14 -39 -17 -50l-2 -8v-1q2 -1 3 0l5 3l27 26l16 17q28 30 35 41q5 7 15 7q7 -1 10.5 -5.5t2.5 -11.5q-2 -16 -6 -27l-8 -25l-3.5 -14t-6.5 -18q-3 -4 -3 -10v-13h2q4 0 6.5 2.5l3.5 3.5q4 2 22 18
q19 19 36.5 43t23.5 31q3 3 3 5zM124 606h3q11 0 15 12l2 10v4q0 5 -2 7t-8 3q-7 1 -21 1q-15 0 -21 -11q-5 -6 0 -11q10 -18 27 -15h5zM184 582q2 0 4.5 -0.5t4.5 0.5q2 3 4 9t2 9q0 6 -6 10q-2 12 -19 12l-5 1q-11 0 -19 -4q-5 -2 -6.5 -6t1.5 -8q8 -13 15 -19t20 -3
q1 -1 4 -1z" />
    <glyph glyph-name="ugrave" unicode="&#xf9;" horiz-adv-x="238" 
d="M270 512q1 1 6 4t11 0q5 -3 6 -7.5t-2 -8.5q-4 -6 -22.5 -31.5t-37.5 -43.5q-13 -12 -26 -23q-17 -12 -32 -12q-14 0 -27 12q-9 9 -9 27q0 9 1 13l-1 4l-1 0.5t-1 -0.5q-2 -1 -6 -5l-39 -40q-15 -16 -44 -14l-15 1q-13 1 -21 9t-9 20q0 9 1 14q5 38 15 62q2 7 8 27t10 24
t11.5 4.5t9.5 0.5l18 -1h5q9 0 14 -5q8 -8 14 -17q2 -4 1 -8q0 -9 -3 -20q-14 -39 -17 -50l-2 -8v-1q2 -1 3 0l5 3l27 26l16 17q28 30 35 41q5 7 15 7q7 -1 10.5 -5.5t2.5 -11.5q-2 -16 -6 -27l-8 -25l-3.5 -14t-6.5 -18q-3 -4 -3 -10v-13h2q4 0 6.5 2.5l3.5 3.5q4 2 22 18
q19 19 36.5 43t23.5 31q3 3 3 5zM121 625q-4 0 -5 -2t1 -5q2 -4 23 -35q1 -2 5 -4q3 -2 6 -1.5t4 1.5q2 2 2.5 4t-0.5 4l-8 23q-6 17 -23 15h-5z" />
    <glyph glyph-name="v" unicode="v" horiz-adv-x="166" 
d="M199 496l-3 -2q-5 -3 -17 -3q-14 0 -27 4.5t-18 13.5q-2 -2 -3.5 -4t-1.5 -3l-8 -13q-24 -42 -59 -74q-6 -6 -18 -14q-9 -6 -19 -6q-6 0 -16 4q-6 2 -6 7l-2 19q-1 11 -1 33q0 43 9 74q0 3 2 9q3 8 10 7q3 0 8.5 1t8.5 -2q13 -11 16 -21q8 -34 8 -52q0 -17 -4 -30l-2 -6
v-2h3q27 34 25 31q8 10 16 22q6 7 13 16.5t16 19.5q8 8 13 10l4 -1v-3v-1v0q-3 -13 9.5 -20t27.5 -7q7 0 11 2h3t3 -3q2 -4 -1 -6z" />
    <glyph glyph-name="w" unicode="w" 
d="M296 494q7 0 7 -3q0 -5 -10 -9q-14 -6 -31 -6q-30 0 -48 14q-4 2 -6 2q-5 0 -14 -7q-48 -40 -72 -59q-11 -9 -24 -8q-6 1 -9 7q-9 17 -7 40v12q-5 0 -7.5 -3.5t-3.5 -4.5l-19 -19q-17 -15 -36 -27q-7 -6 -20 -4q-5 2 -6 6v14l4 15q14 38 23 56q13 26 15 28q4 4 5 8
q4 5 12 5h2q16 0 18 -17q0 -8 -1 -12q-7 -31 -18 -50q-2 -2 -4 -7v-0.5t1 -0.5h1l3 2l32 32q3 2 5 9q1 2 2 5t3 6q2 4 5 3l4 -1q3 1 7 1q9 0 18 -11q9 -13 11 -36q0 -7 1 -11q3 0 10 7l43 34q13 11 17 18q9 12 24 9q2 -1 6 -5q2 -2 1 -5l-8 -12q-1 -1 0.5 -3t1.5 -3
q10 -13 32 -13q5 0 23 3q3 1 7 1z" />
    <glyph glyph-name="wacute" unicode="&#x1e83;" 
d="M296 494q7 0 7 -3q0 -5 -10 -9q-14 -6 -31 -6q-30 0 -48 14q-4 2 -6 2q-5 0 -14 -7q-48 -40 -72 -59q-11 -9 -24 -8q-6 1 -9 7q-9 17 -7 40v12q-5 0 -7.5 -3.5t-3.5 -4.5l-19 -19q-17 -15 -36 -27q-7 -6 -20 -4q-5 2 -6 6v14l4 15q14 38 23 56q13 26 15 28q4 4 5 8
q4 5 12 5h2q16 0 18 -17q0 -8 -1 -12q-7 -31 -18 -50q-2 -2 -4 -7v-0.5t1 -0.5h1l3 2l32 32q3 2 5 9q1 2 2 5t3 6q2 4 5 3l4 -1q3 1 7 1q9 0 18 -11q9 -13 11 -36q0 -7 1 -11q3 0 10 7l43 34q13 11 17 18q9 12 24 9q2 -1 6 -5q2 -2 1 -5l-8 -12q-1 -1 0.5 -3t1.5 -3
q10 -13 32 -13q5 0 23 3q3 1 7 1zM169 626q-10 0 -16 -10q-3 -4 -21 -35q0 -1 -0.5 -2.5t0.5 -2.5q3 -7 12 -7q5 0 8 4q18 24 26 36q2 2 4 12q0 4 -4 4q-2 1 -5 1h-4z" />
    <glyph glyph-name="wcircumflex" unicode="&#x175;" 
d="M296 494q7 0 7 -3q0 -5 -10 -9q-14 -6 -31 -6q-30 0 -48 14q-4 2 -6 2q-5 0 -14 -7q-48 -40 -72 -59q-11 -9 -24 -8q-6 1 -9 7q-9 17 -7 40v12q-5 0 -7.5 -3.5t-3.5 -4.5l-19 -19q-17 -15 -36 -27q-7 -6 -20 -4q-5 2 -6 6v14l4 15q14 38 23 56q13 26 15 28q4 4 5 8
q4 5 12 5h2q16 0 18 -17q0 -8 -1 -12q-7 -31 -18 -50q-2 -2 -4 -7v-0.5t1 -0.5h1l3 2l32 32q3 2 5 9q1 2 2 5t3 6q2 4 5 3l4 -1q3 1 7 1q9 0 18 -11q9 -13 11 -36q0 -7 1 -11q3 0 10 7l43 34q13 11 17 18q9 12 24 9q2 -1 6 -5q2 -2 1 -5l-8 -12q-1 -1 0.5 -3t1.5 -3
q10 -13 32 -13q5 0 23 3q3 1 7 1zM181 604q0 8 -3 14q-2 5 -6 6q-8 2 -12 2q-10 0 -18 -8l-33 -36l-4 -7q-1 -3 1 -5t4 -2q2 1 6 2.5t6 3.5l22 18l9 8q1 2 4 -1l2 -9l5 -16q2 -6 7 -9q4 -2 5 -2q3 0 5 2.5t2 6.5l-2 19v13z" />
    <glyph glyph-name="wdieresis" unicode="&#x1e85;" 
d="M296 494q7 0 7 -3q0 -5 -10 -9q-14 -6 -31 -6q-30 0 -48 14q-4 2 -6 2q-5 0 -14 -7q-48 -40 -72 -59q-11 -9 -24 -8q-6 1 -9 7q-9 17 -7 40v12q-5 0 -7.5 -3.5t-3.5 -4.5l-19 -19q-17 -15 -36 -27q-7 -6 -20 -4q-5 2 -6 6v14l4 15q14 38 23 56q13 26 15 28q4 4 5 8
q4 5 12 5h2q16 0 18 -17q0 -8 -1 -12q-7 -31 -18 -50q-2 -2 -4 -7v-0.5t1 -0.5h1l3 2l32 32q3 2 5 9q1 2 2 5t3 6q2 4 5 3l4 -1q3 1 7 1q9 0 18 -11q9 -13 11 -36q0 -7 1 -11q3 0 10 7l43 34q13 11 17 18q9 12 24 9q2 -1 6 -5q2 -2 1 -5l-8 -12q-1 -1 0.5 -3t1.5 -3
q10 -13 32 -13q5 0 23 3q3 1 7 1zM120 587h3q11 0 15 12l2 10v4q0 5 -2 7t-8 3q-7 1 -21 1q-15 0 -21 -11q-5 -6 0 -11q10 -18 27 -15h5zM180 563q2 0 4.5 -0.5t4.5 0.5q2 3 4 9t2 9q0 6 -6 10q-2 12 -19 12l-5 1q-11 0 -19 -4q-5 -2 -6.5 -6t1.5 -8q8 -13 15 -19t20 -3
q1 -1 4 -1z" />
    <glyph glyph-name="wgrave" unicode="&#x1e81;" 
d="M296 494q7 0 7 -3q0 -5 -10 -9q-14 -6 -31 -6q-30 0 -48 14q-4 2 -6 2q-5 0 -14 -7q-48 -40 -72 -59q-11 -9 -24 -8q-6 1 -9 7q-9 17 -7 40v12q-5 0 -7.5 -3.5t-3.5 -4.5l-19 -19q-17 -15 -36 -27q-7 -6 -20 -4q-5 2 -6 6v14l4 15q14 38 23 56q13 26 15 28q4 4 5 8
q4 5 12 5h2q16 0 18 -17q0 -8 -1 -12q-7 -31 -18 -50q-2 -2 -4 -7v-0.5t1 -0.5h1l3 2l32 32q3 2 5 9q1 2 2 5t3 6q2 4 5 3l4 -1q3 1 7 1q9 0 18 -11q9 -13 11 -36q0 -7 1 -11q3 0 10 7l43 34q13 11 17 18q9 12 24 9q2 -1 6 -5q2 -2 1 -5l-8 -12q-1 -1 0.5 -3t1.5 -3
q10 -13 32 -13q5 0 23 3q3 1 7 1zM108 613q-4 0 -5 -2t1 -5q2 -4 23 -35q1 -2 5 -4q3 -2 6 -1.5t4 1.5q2 2 2.5 4t-0.5 4l-8 23q-6 17 -23 15h-5z" />
    <glyph glyph-name="x" unicode="x" horiz-adv-x="200" 
d="M206 454.5q-41 -36.5 -43 -37.5q-22 -20 -67 -20q-28 0 -45 7q-3 0 -5 2q-2 1 -6 1q-5 0 -9 -4l-11 -11q-8 -10 -24 -8q-2 1 -5 1q-9 2 -9 6t3 8q1 1 13 16l13 12q3 5 2 8q-7 15 -9 47q1 14 3 29.5t3 21.5q1 9 5 20q2 8 6 12q2 3 4 3.5t3 -3.5q1 -1 7 -1q4 2 11 2
q14 0 27 -15t15 -38v-14q1 -1 3 0.5t3 1.5q3 2 5.5 4t5.5 4q10 4 16 5h1q3 0 4.5 -3t0.5 -6q-7 -16 -15 -25l-8 -8q-1 -1 -6 -5.5t-5 -7.5q0 -4 4 -15q6 -22 19 -22q8 0 17 4q30 12 53 35q4 4 21 22t21 20l2 1q4 0 10 -6q7 -7 -34 -43.5z" />
    <glyph glyph-name="y" unicode="y" horiz-adv-x="228" 
d="M269 490q-6 -8 -18 -15l-22 -9l-60 -37q-5 -3 -31 -24q-14 -41 -28 -71q-35 -79 -74 -139l-48 -71l-19 -24q-26 -32 -67 -51q-16 -8 -31 -8q-8 0 -12 1q-17 1 -25 18q-4 9 -4 20q0 9 1 13q6 36 29 69q21 32 53 64l31 31q30 32 62 62q20 19 30 41q11 23 26 50l10 20
q2 2 0 3q0 2 -2 0q-10 -3 -22 -3q-6 0 -22 2q-13 3 -28 12q-8 4 -10 15v2q0 9 4 29q5 25 22 39q1 1 8 6q5 3 8 0q4 -3 13 -1h3q17 0 26 -14q2 -4 4 -6q6 -6 6 -11q0 -3 -2 -9l-12 -29l-3 -6v-3h4q1 0 3 2q24 10 33 29q7 13 17 26q4 8 11 5q4 0 5 1h3q7 0 14 -7q10 -10 7 -25
l-3 -17l-11 -36q24 15 46.5 29t35.5 20l31 14q7 2 9 -1q1 -2 -1 -6zM4.5 297.5l-0.5 0.5h-2l-4 -4l-25 -24q-43 -43 -63 -66q-27 -32 -41 -59q-15 -29 -18 -64l4 -16q2 -7 6 -8.5t12 0.5q16 7 25 16q9 8 23 28q12 19 25 51l52 129l6 15q1 1 0.5 1.5z" />
    <glyph glyph-name="yacute" unicode="&#xfd;" horiz-adv-x="228" 
d="M269 490q-6 -8 -18 -15l-22 -9l-60 -37q-5 -3 -31 -24q-14 -41 -28 -71q-35 -79 -74 -139l-48 -71l-19 -24q-26 -32 -67 -51q-16 -8 -31 -8q-8 0 -12 1q-17 1 -25 18q-4 9 -4 20q0 9 1 13q6 36 29 69q21 32 53 64l31 31q30 32 62 62q20 19 30 41q11 23 26 50l10 20
q2 2 0 3q0 2 -2 0q-10 -3 -22 -3q-6 0 -22 2q-13 3 -28 12q-8 4 -10 15v2q0 9 4 29q5 25 22 39q1 1 8 6q5 3 8 0q4 -3 13 -1h3q17 0 26 -14q2 -4 4 -6q6 -6 6 -11q0 -3 -2 -9l-12 -29l-3 -6v-3h4q1 0 3 2q24 10 33 29q7 13 17 26q4 8 11 5q4 0 5 1h3q7 0 14 -7q10 -10 7 -25
l-3 -17l-11 -36q24 15 46.5 29t35.5 20l31 14q7 2 9 -1q1 -2 -1 -6zM4.5 297.5l-0.5 0.5h-2l-4 -4l-25 -24q-43 -43 -63 -66q-27 -32 -41 -59q-15 -29 -18 -64l4 -16q2 -7 6 -8.5t12 0.5q16 7 25 16q9 8 23 28q12 19 25 51l52 129l6 15q1 1 0.5 1.5zM141 628q-10 0 -16 -10
q-3 -4 -21 -35q0 -1 -0.5 -2.5t0.5 -2.5q3 -7 12 -7q5 0 8 4q18 24 26 36q2 2 4 12q0 4 -4 4q-2 1 -5 1h-4z" />
    <glyph glyph-name="ycircumflex" unicode="&#x177;" horiz-adv-x="228" 
d="M269 490q-6 -8 -18 -15l-22 -9l-60 -37q-5 -3 -31 -24q-14 -41 -28 -71q-35 -79 -74 -139l-48 -71l-19 -24q-26 -32 -67 -51q-16 -8 -31 -8q-8 0 -12 1q-17 1 -25 18q-4 9 -4 20q0 9 1 13q6 36 29 69q21 32 53 64l31 31q30 32 62 62q20 19 30 41q11 23 26 50l10 20
q2 2 0 3q0 2 -2 0q-10 -3 -22 -3q-6 0 -22 2q-13 3 -28 12q-8 4 -10 15v2q0 9 4 29q5 25 22 39q1 1 8 6q5 3 8 0q4 -3 13 -1h3q17 0 26 -14q2 -4 4 -6q6 -6 6 -11q0 -3 -2 -9l-12 -29l-3 -6v-3h4q1 0 3 2q24 10 33 29q7 13 17 26q4 8 11 5q4 0 5 1h3q7 0 14 -7q10 -10 7 -25
l-3 -17l-11 -36q24 15 46.5 29t35.5 20l31 14q7 2 9 -1q1 -2 -1 -6zM4.5 297.5l-0.5 0.5h-2l-4 -4l-25 -24q-43 -43 -63 -66q-27 -32 -41 -59q-15 -29 -18 -64l4 -16q2 -7 6 -8.5t12 0.5q16 7 25 16q9 8 23 28q12 19 25 51l52 129l6 15q1 1 0.5 1.5zM149 608q0 8 -3 14
q-2 5 -6 6q-8 2 -12 2q-10 0 -18 -8l-33 -36l-4 -7q-1 -3 1 -5t4 -2q2 1 6 2.5t6 3.5l22 18l9 8q1 2 4 -1l2 -9l5 -16q2 -6 7 -9q4 -2 5 -2q3 0 5 2.5t2 6.5l-2 19v13z" />
    <glyph glyph-name="ydieresis" unicode="&#xff;" horiz-adv-x="228" 
d="M269 490q-6 -8 -18 -15l-22 -9l-60 -37q-5 -3 -31 -24q-14 -41 -28 -71q-35 -79 -74 -139l-48 -71l-19 -24q-26 -32 -67 -51q-16 -8 -31 -8q-8 0 -12 1q-17 1 -25 18q-4 9 -4 20q0 9 1 13q6 36 29 69q21 32 53 64l31 31q30 32 62 62q20 19 30 41q11 23 26 50l10 20
q2 2 0 3q0 2 -2 0q-10 -3 -22 -3q-6 0 -22 2q-13 3 -28 12q-8 4 -10 15v2q0 9 4 29q5 25 22 39q1 1 8 6q5 3 8 0q4 -3 13 -1h3q17 0 26 -14q2 -4 4 -6q6 -6 6 -11q0 -3 -2 -9l-12 -29l-3 -6v-3h4q1 0 3 2q24 10 33 29q7 13 17 26q4 8 11 5q4 0 5 1h3q7 0 14 -7q10 -10 7 -25
l-3 -17l-11 -36q24 15 46.5 29t35.5 20l31 14q7 2 9 -1q1 -2 -1 -6zM4.5 297.5l-0.5 0.5h-2l-4 -4l-25 -24q-43 -43 -63 -66q-27 -32 -41 -59q-15 -29 -18 -64l4 -16q2 -7 6 -8.5t12 0.5q16 7 25 16q9 8 23 28q12 19 25 51l52 129l6 15q1 1 0.5 1.5zM93 589h3q11 0 15 12
l2 10v4q0 5 -2 7t-8 3q-7 1 -21 1q-15 0 -21 -11q-5 -6 0 -11q10 -18 27 -15h5zM153 565q2 0 4.5 -0.5t4.5 0.5q2 3 4 9t2 9q0 6 -6 10q-2 12 -19 12l-5 1q-11 0 -19 -4q-5 -2 -6.5 -6t1.5 -8q8 -13 15 -19t20 -3q1 -1 4 -1z" />
    <glyph glyph-name="ygrave" unicode="&#x1ef3;" horiz-adv-x="228" 
d="M269 490q-6 -8 -18 -15l-22 -9l-60 -37q-5 -3 -31 -24q-14 -41 -28 -71q-35 -79 -74 -139l-48 -71l-19 -24q-26 -32 -67 -51q-16 -8 -31 -8q-8 0 -12 1q-17 1 -25 18q-4 9 -4 20q0 9 1 13q6 36 29 69q21 32 53 64l31 31q30 32 62 62q20 19 30 41q11 23 26 50l10 20
q2 2 0 3q0 2 -2 0q-10 -3 -22 -3q-6 0 -22 2q-13 3 -28 12q-8 4 -10 15v2q0 9 4 29q5 25 22 39q1 1 8 6q5 3 8 0q4 -3 13 -1h3q17 0 26 -14q2 -4 4 -6q6 -6 6 -11q0 -3 -2 -9l-12 -29l-3 -6v-3h4q1 0 3 2q24 10 33 29q7 13 17 26q4 8 11 5q4 0 5 1h3q7 0 14 -7q10 -10 7 -25
l-3 -17l-11 -36q24 15 46.5 29t35.5 20l31 14q7 2 9 -1q1 -2 -1 -6zM4.5 297.5l-0.5 0.5h-2l-4 -4l-25 -24q-43 -43 -63 -66q-27 -32 -41 -59q-15 -29 -18 -64l4 -16q2 -7 6 -8.5t12 0.5q16 7 25 16q9 8 23 28q12 19 25 51l52 129l6 15q1 1 0.5 1.5zM91 611q-4 0 -5 -2t1 -5
q2 -4 23 -35q1 -2 5 -4q3 -2 6 -1.5t4 1.5q2 2 2.5 4t-0.5 4l-8 23q-6 17 -23 15h-5z" />
    <glyph glyph-name="z" unicode="z" horiz-adv-x="170" 
d="M208 498.5q4 -2.5 3 -3.5t-19.5 -46.5t-81.5 -97.5l-9 -17l-65 -130q-12 -26 -37 -53q-30 -30 -76 -41q-4 -1 -11 -1q-15 0 -26 7q-12 6 -14 22v5q0 10 5 22q7 16 20 31q14 19 42 43l73 61q11 9 16 20q18 32 28 48l3 6v3l-1 0.5t-1 -0.5q-8 -1 -16.5 -2.5t-16.5 -2.5
q-9 -1 -29 -1h-6q-7 1 -9 4.5t1 10.5q11 24 28 41l54 51q4 3 7 7q1 0 0.5 1t-1.5 1l-28 3l-20 4q-8 2 -11 4q-10 5 -10 14q0 6 4 10q19 21 39 29q8 3 15 2q8 -3 8 -10q0 -5 -4.5 -10.5t-5.5 -6.5l-12 -12l-2 -4l4 -2h17v-1q6 0 16 0.5t23 2.5q3 1 8 1l16 -1h2q7 0 12 -7
q4 -4 5 -6q4 -4 2 -9q-6 -9 -7 -10q-12 -18 -24 -28q-6 -5 -22.5 -19.5t-32.5 -23.5q-8 -5 -15 -10.5t-10 -8.5q15 1 37 9q7 3 21.5 9t18.5 5q8 -1 13 -10l3 -4q2 -2 6.5 4t5.5 7q7 9 30 53q20 38 23 38q1 0 4 1.5t4 0.5q2 0 6 -2.5zM51 539q0 1 0.5 1h0.5q0 2 -1 3h-2
q-15 -8 -20 -20q-1 -1 -1 -5h4q13 11 19 21zM-3 256q1 2 1 5q-2 0 -6 -2l-12 -10q-30 -24 -52 -47q-15 -17 -27 -36q-8 -13 -8 -28q0 -7 4.5 -11t10.5 -4q5 0 8 2q28 18 38 37q17 30 43 94z" />
    <glyph glyph-name="quotesingle" unicode="'" horiz-adv-x="80" 
d="M59.5 519q2.5 0 3.5 1q2 1 1.5 3t-0.5 4q2 8 5 11l22 34q5 7 8 14q1 1 1 4q0 5 -3.5 8.5t-7.5 4.5h-5q-10 0 -14 -8q-16 -26 -27 -56l-2 -4l-1 -7q0 -8 13 -9q1 0 1.5 -0.5t1.5 -0.5q1 1 3.5 1z" />
    <glyph glyph-name="uni0308" unicode="&#x308;" horiz-adv-x="0" 
d="M-507 615h3q11 0 15 12l2 10v4q0 5 -2 7t-8 3q-7 1 -21 1q-15 0 -21 -11q-5 -6 0 -11q10 -18 27 -15h5zM-447 591q2 0 4.5 -0.5t4.5 0.5q2 3 4 9t2 9q0 6 -6 10q-2 12 -19 12l-5 1q-11 0 -19 -4q-5 -2 -6.5 -6t1.5 -8q8 -13 15 -19t20 -3q1 -1 4 -1z" />
    <glyph glyph-name="uni0307" unicode="&#x307;" horiz-adv-x="0" 
d="M-514 642q-10 -8 -14 -13q-10 -10 -12 -17l-1 -5q0 -7 4.5 -11.5t12.5 -5.5h4q8 0 16 5q18 10 20 37v3q0 7 -3.5 9.5t-11.5 3.5q-10 0 -15 -6z" />
    <glyph glyph-name="gravecomb" unicode="&#x300;" horiz-adv-x="0" 
d="M-543 637q-4 0 -5 -2t1 -5q2 -4 23 -35q1 -2 5 -4q3 -2 6 -1.5t4 1.5q2 2 2.5 4t-0.5 4l-8 23q-6 17 -23 15h-5z" />
    <glyph glyph-name="acutecomb" unicode="&#x301;" horiz-adv-x="0" 
d="M-493 634q-10 0 -16 -10q-3 -4 -21 -35q0 -1 -0.5 -2.5t0.5 -2.5q3 -7 12 -7q5 0 8 4q18 24 26 36q2 2 4 12q0 4 -4 4q-2 1 -5 1h-4z" />
    <glyph glyph-name="uni0302" unicode="&#x302;" horiz-adv-x="0" 
d="M-468 614q0 8 -3 14q-2 5 -6 6q-8 2 -12 2q-10 0 -18 -8l-33 -36l-4 -7q-1 -3 1 -5t4 -2q2 1 6 2.5t6 3.5l22 18l9 8q1 2 4 -1l2 -9l5 -16q2 -6 7 -9q4 -2 5 -2q3 0 5 2.5t2 6.5l-2 19v13z" />
    <glyph glyph-name="uni030A" unicode="&#x30a;" horiz-adv-x="0" 
d="M-458 645q-1 10 -5 13.5t-14 3.5q-5 0 -18 -6t-18 -11q-7 -6 -15 -22q-2 -6 -2 -9t2 -9q6 -13 18 -17q8 -2 11 -2q22 0 32 18q7 13 9 34v7zM-488 609q-2 -5 -9 -8q-2 -1 -4 0t-2 3q-2 5 0 9l14 28q1 2 3.5 4t3.5 3l3 1.5t2 0.5q1 -1 1.5 -2.5t1.5 -2.5q-3 -23 -14 -36z
" />
    <glyph glyph-name="tildecomb" unicode="&#x303;" horiz-adv-x="0" 
d="M-564 615q-6 -4 -9 -12q-1 -3 0 -6t3 -4q3 0 6 3q14 9 18 11q5 3 10 -2l3 -3l8 -9q8 -6 13 -6l9 -2h4q7 0 12 4q2 1 4 3t6 4l3 4q3 3 3 9q0 2 -1 2q-2 0 -5.5 0.5t-6.5 -1.5l-12 -5q-6 -3 -9 -3t-10 7l-8 7q-6 5 -13 6t-9 1q-12 -2 -19 -8z" />
    <glyph glyph-name="uni0327" unicode="&#x327;" horiz-adv-x="0" 
d="M-525 348q2 4 2 11q0 9 -6 16q-5 6 -13 6q-4 1 -4.5 3t0.5 5l3 19q0 1 -0.5 2.5t-1.5 1.5q-5 0 -6 -1l-5 -10q-6 -18 -8 -27q-2 -3 0 -5q3 -4 7 -2l8 6q1 1 3 1q6 0 8 -5q1 -2 1 -5q0 -5 -5 -12q-4 -6 -9 -6q-4 0 -9 5q-4 5 -11 5q-3 0 -3 -4q2 -9 8.5 -14.5t16.5 -4.5
q16 0 24 15z" />
    <glyph glyph-name="uni0335" unicode="&#x335;" horiz-adv-x="0" 
 />
    <glyph glyph-name="uni0338" unicode="&#x338;" horiz-adv-x="0" 
 />
    <glyph glyph-name="ll" unicode="&#xf6c0;" horiz-adv-x="600" 
 />
  </font>
</defs>
</svg>
